<svg width="2000px" height="1159px"
 viewBox="0.00 0.00 1144.40 663.19" xmlns="http://www.w3.org/2000/svg" xmlns:xlink="http://www.w3.org/1999/xlink">
<g id="graph0" class="graph" transform="scale(1.0 1.0) rotate(0) translate(4 659.19)">
<title>ContextMapGraph</title>
<polygon fill="white" stroke="transparent" points="-4,4 -4,-659.19 1140.4,-659.19 1140.4,4 -4,4"/>
<!-- ContextoContratos -->
<g id="node1" class="node">
<title>ContextoContratos</title>
<polygon fill="none" stroke="black" stroke-width="2" points="429.74,-468.85 428.36,-471.7 426.61,-474.51 424.5,-477.28 422.03,-479.98 419.22,-482.61 416.06,-485.16 412.58,-487.62 408.77,-489.97 404.66,-492.22 400.25,-494.34 395.55,-496.34 390.58,-498.21 385.35,-499.94 379.88,-501.53 374.18,-502.96 368.27,-504.25 362.16,-505.38 355.87,-506.36 349.42,-507.17 342.82,-507.84 336.09,-508.34 329.25,-508.69 322.32,-508.88 315.31,-508.93 308.24,-508.82 301.14,-508.57 294.02,-508.19 286.9,-507.67 279.8,-507.02 272.73,-506.25 265.72,-505.36 258.78,-504.36 251.94,-503.25 245.2,-502.05 238.59,-500.76 232.13,-499.39 225.83,-497.94 219.71,-496.42 213.78,-494.83 208.06,-493.19 202.57,-491.49 197.32,-489.76 192.33,-487.98 187.6,-486.16 183.16,-484.32 179.01,-482.45 175.16,-480.57 171.63,-478.66 168.43,-476.74 165.56,-474.82 163.04,-472.88 160.87,-470.94 159.05,-469 157.6,-467.06 156.52,-465.13 155.81,-463.19 155.48,-461.26 155.52,-459.34 155.94,-457.42 156.73,-455.52 157.91,-453.62 159.45,-451.74 161.37,-449.87 163.65,-448.01 166.29,-446.17 169.29,-444.35 172.63,-442.54 176.31,-440.76 180.32,-439.01 184.64,-437.28 189.27,-435.58 194.2,-433.91 199.4,-432.29 204.87,-430.7 210.59,-429.16 216.55,-427.67 222.73,-426.24 229.1,-424.87 235.66,-423.56 242.39,-422.33 249.26,-421.17 256.26,-420.09 263.37,-419.11 270.56,-418.22 277.82,-417.43 285.13,-416.75 292.46,-416.18 299.79,-415.73 307.11,-415.4 314.39,-415.2 321.61,-415.14 328.75,-415.21 335.79,-415.42 342.71,-415.77 349.49,-416.28 356.11,-416.92 362.56,-417.72 368.8,-418.67 374.84,-419.77 380.64,-421.01 386.2,-422.4 391.49,-423.94 396.51,-425.62 401.24,-427.43 405.66,-429.37 409.76,-431.44 413.54,-433.63 416.99,-435.94 420.08,-438.34 422.82,-440.84 425.2,-443.43 427.22,-446.09 428.86,-448.82 430.12,-451.61 431.01,-454.44 431.51,-457.3 431.64,-460.19 431.39,-463.08 430.75,-465.97 429.74,-468.85"/>
<text text-anchor="middle" x="293.4" y="-457.65" font-family="sans-serif" font-size="16.00">ContextoContratos</text>
</g>
<!-- ContextoPagos -->
<g id="node2" class="node">
<title>ContextoPagos</title>
<polygon fill="none" stroke="black" stroke-width="2" points="164.29,-224.09 157.16,-223.08 150.18,-221.96 143.4,-220.74 136.83,-219.42 130.52,-218.01 124.47,-216.51 118.72,-214.93 113.29,-213.27 108.2,-211.53 103.47,-209.73 99.12,-207.87 95.16,-205.95 91.6,-203.98 88.45,-201.96 85.73,-199.9 83.44,-197.81 81.59,-195.69 80.17,-193.54 79.18,-191.38 78.63,-189.21 78.51,-187.02 78.81,-184.84 79.53,-182.65 80.64,-180.48 82.15,-178.32 84.04,-176.17 86.3,-174.05 88.89,-171.96 91.82,-169.9 95.06,-167.87 98.6,-165.89 102.4,-163.95 106.46,-162.06 110.75,-160.23 115.26,-158.45 119.95,-156.73 124.81,-155.09 129.83,-153.51 134.97,-152 140.23,-150.57 145.58,-149.22 151.01,-147.96 156.49,-146.78 162.01,-145.69 167.56,-144.7 173.13,-143.8 178.69,-143 184.24,-142.3 189.77,-141.71 195.26,-141.22 200.72,-140.84 206.12,-140.56 211.46,-140.4 216.74,-140.35 221.94,-140.42 227.08,-140.6 232.13,-140.89 237.1,-141.3 241.99,-141.82 246.78,-142.46 251.48,-143.21 256.09,-144.08 260.6,-145.05 265,-146.14 269.3,-147.34 273.5,-148.64 277.58,-150.04 281.54,-151.55 285.39,-153.15 289.11,-154.84 292.69,-156.62 296.14,-158.48 299.43,-160.43 302.58,-162.44 305.56,-164.53 308.37,-166.68 310.99,-168.88 313.43,-171.13 315.65,-173.43 317.67,-175.76 319.46,-178.12 321.01,-180.51 322.31,-182.91 323.35,-185.31 324.11,-187.72 324.59,-190.12 324.78,-192.5 324.66,-194.86 324.22,-197.19 323.46,-199.48 322.36,-201.72 320.92,-203.92 319.14,-206.05 317,-208.12 314.52,-210.11 311.67,-212.02 308.48,-213.85 304.93,-215.58 301.03,-217.22 296.78,-218.76 292.2,-220.19 287.29,-221.51 282.07,-222.72 276.55,-223.81 270.74,-224.77 264.65,-225.62 258.32,-226.33 251.76,-226.92 244.98,-227.38 238.03,-227.72 230.91,-227.92 223.66,-227.99 216.3,-227.94 208.86,-227.76 201.38,-227.45 193.88,-227.02 186.39,-226.46 178.94,-225.79 171.57,-225 164.29,-224.09"/>
<text text-anchor="middle" x="207.4" y="-179.68" font-family="sans-serif" font-size="16.00">ContextoPagos</text>
</g>
<!-- ContextoContratos&#45;&gt;ContextoPagos -->
<g id="edge1" class="edge">
<title>ContextoContratos&#45;&gt;ContextoPagos</title>
<path fill="none" stroke="black" stroke-width="2" d="M183.71,-437.47C144.59,-423.42 104.52,-400.96 81.4,-365.22 60.15,-332.39 63.75,-312.13 81.4,-277.23 93.47,-253.36 114.91,-234.12 136.71,-219.49"/>
<text text-anchor="middle" x="123.4" y="-318.13" font-family="sans-serif" font-size="12.00">Shared Kernel</text>
</g>
<!-- ContextoContratos&#45;&gt;ContextoPagos -->
<g id="edge3" class="edge">
<title>ContextoContratos&#45;&gt;ContextoPagos</title>
<path fill="none" stroke="black" stroke-width="2" d="M240.44,-422.63C223,-407.04 205.71,-387.42 196.4,-365.22 177.79,-320.87 185.35,-264.97 194.45,-227.17"/>
<text text-anchor="middle" x="271.9" y="-318.13" font-family="sans-serif" font-size="12.00"> &#160;&#160;&#160;&#160;&#160;&#160;&#160;&#160;&#160;&#160;&#160;&#160;&#160;&#160;&#160;&#160;&#160;&#160;&#160;&#160;&#160;&#160;&#160;&#160;&#160;&#160;&#160;&#160;&#160;&#160;&#160;&#160;&#160;&#160;&#160;&#160;&#160;&#160;&#160;</text>
<polygon fill="white" stroke="transparent" points="187.45,-218.17 187.45,-235.17 201.45,-235.17 201.45,-218.17 187.45,-218.17"/>
<text text-anchor="start" x="189.45" y="-223.57" font-family="sans-serif" font-size="12.00">D</text>
<polygon fill="white" stroke="transparent" points="233.44,-413.63 233.44,-430.63 247.44,-430.63 247.44,-413.63 233.44,-413.63"/>
<text text-anchor="start" x="235.44" y="-419.03" font-family="sans-serif" font-size="12.00">U</text>
</g>
<!-- ContextoReportesAnalitica -->
<g id="node3" class="node">
<title>ContextoReportesAnalitica</title>
<polygon fill="none" stroke="black" stroke-width="2" points="737.73,-4.44 748.81,-5.5 759.63,-6.67 770.15,-7.94 780.31,-9.3 790.08,-10.76 799.42,-12.3 808.28,-13.92 816.65,-15.62 824.48,-17.39 831.74,-19.23 838.41,-21.12 844.46,-23.07 849.88,-25.07 854.65,-27.11 858.75,-29.19 862.17,-31.3 864.92,-33.44 866.98,-35.6 868.36,-37.77 869.07,-39.96 869.1,-42.15 868.47,-44.34 867.19,-46.52 865.28,-48.69 862.77,-50.85 859.66,-52.98 855.98,-55.09 851.77,-57.18 847.04,-59.22 841.83,-61.23 836.16,-63.19 830.07,-65.11 823.59,-66.98 816.75,-68.79 809.58,-70.54 802.12,-72.23 794.4,-73.85 786.45,-75.4 778.29,-76.87 769.97,-78.27 761.51,-79.59 752.94,-80.82 744.29,-81.96 735.57,-83.02 726.83,-83.98 718.06,-84.84 709.31,-85.61 700.58,-86.27 691.9,-86.83 683.28,-87.28 674.73,-87.63 666.27,-87.87 657.91,-88 649.66,-88.01 641.52,-87.91 633.51,-87.7 625.64,-87.37 617.9,-86.93 610.3,-86.37 602.86,-85.7 595.56,-84.92 588.43,-84.02 581.45,-83.01 574.64,-81.89 568.01,-80.67 561.55,-79.34 555.27,-77.9 549.18,-76.37 543.29,-74.74 537.61,-73.02 532.14,-71.21 526.89,-69.32 521.87,-67.35 517.11,-65.31 512.6,-63.2 508.37,-61.03 504.43,-58.81 500.79,-56.53 497.47,-54.22 494.49,-51.87 491.87,-49.49 489.62,-47.09 487.76,-44.68 486.31,-42.26 485.29,-39.84 484.72,-37.44 484.6,-35.05 484.96,-32.68 485.82,-30.35 487.18,-28.06 489.06,-25.82 491.46,-23.63 494.41,-21.51 497.89,-19.45 501.92,-17.47 506.51,-15.57 511.64,-13.76 517.31,-12.04 523.53,-10.43 530.27,-8.91 537.54,-7.51 545.3,-6.22 553.55,-5.05 562.27,-3.99 571.42,-3.06 580.99,-2.26 590.94,-1.58 601.24,-1.03 611.86,-0.61 622.76,-0.32 633.9,-0.17 645.24,-0.14 656.73,-0.24 668.34,-0.48 680.01,-0.83 691.71,-1.32 703.37,-1.92 714.96,-2.65 726.43,-3.49 737.73,-4.44"/>
<text text-anchor="middle" x="667.4" y="-41.06" font-family="sans-serif" font-size="16.00">ContextoReportesAnalitica</text>
</g>
<!-- ContextoContratos&#45;&gt;ContextoReportesAnalitica -->
<g id="edge5" class="edge">
<title>ContextoContratos&#45;&gt;ContextoReportesAnalitica</title>
<path fill="none" stroke="black" stroke-width="2" d="M419.82,-437.93C550.44,-414.06 736.81,-378.07 747.4,-365.22 779.41,-326.38 767.21,-185.8 749.4,-138.72 741.86,-118.8 727.89,-100.4 713.59,-85.33"/>
<text text-anchor="middle" x="808.4" y="-249.63" font-family="sans-serif" font-size="12.00">Shared Kernel</text>
</g>
<!-- ContextoTrackingEventos -->
<g id="node4" class="node">
<title>ContextoTrackingEventos</title>
<polygon fill="none" stroke="black" stroke-width="2" points="583.05,-278.2 594.38,-278.74 605.55,-279.4 616.5,-280.16 627.2,-281.04 637.59,-282.02 647.64,-283.11 657.3,-284.31 666.55,-285.59 675.34,-286.98 683.65,-288.45 691.44,-290.01 698.68,-291.66 705.36,-293.37 711.46,-295.17 716.95,-297.02 721.83,-298.95 726.08,-300.92 729.7,-302.96 732.68,-305.03 735.03,-307.15 736.74,-309.3 737.83,-311.49 738.29,-313.69 738.16,-315.92 737.43,-318.16 736.12,-320.41 734.26,-322.65 731.86,-324.89 728.95,-327.13 725.55,-329.34 721.68,-331.54 717.37,-333.71 712.66,-335.84 707.56,-337.94 702.11,-339.99 696.32,-341.99 690.24,-343.94 683.88,-345.83 677.28,-347.66 670.46,-349.42 663.45,-351.1 656.26,-352.71 648.93,-354.23 641.47,-355.67 633.9,-357.01 626.25,-358.27 618.53,-359.42 610.76,-360.48 602.95,-361.43 595.12,-362.27 587.27,-363 579.43,-363.63 571.59,-364.13 563.77,-364.53 555.97,-364.8 548.21,-364.96 540.48,-365 532.79,-364.92 525.16,-364.72 517.57,-364.4 510.05,-363.96 502.58,-363.41 495.19,-362.73 487.87,-361.95 480.62,-361.04 473.47,-360.03 466.41,-358.91 459.45,-357.68 452.61,-356.34 445.89,-354.91 439.3,-353.38 432.87,-351.76 426.59,-350.05 420.5,-348.26 414.6,-346.39 408.91,-344.45 403.46,-342.44 398.25,-340.37 393.32,-338.24 388.69,-336.06 384.37,-333.84 380.39,-331.58 376.77,-329.29 373.53,-326.98 370.7,-324.64 368.31,-322.3 366.36,-319.95 364.88,-317.61 363.9,-315.28 363.43,-312.96 363.49,-310.67 364.09,-308.4 365.24,-306.17 366.97,-303.99 369.27,-301.85 372.16,-299.77 375.64,-297.76 379.71,-295.81 384.36,-293.93 389.6,-292.13 395.41,-290.41 401.79,-288.79 408.71,-287.25 416.17,-285.82 424.14,-284.48 432.6,-283.25 441.53,-282.12 450.88,-281.11 460.64,-280.21 470.76,-279.43 481.21,-278.76 491.95,-278.22 502.94,-277.79 514.14,-277.49 525.49,-277.3 536.96,-277.24 548.5,-277.3 560.06,-277.48 571.59,-277.78 583.05,-278.2"/>
<text text-anchor="middle" x="547.4" y="-317.43" font-family="sans-serif" font-size="16.00">ContextoTrackingEventos</text>
</g>
<!-- ContextoContratos&#45;&gt;ContextoTrackingEventos -->
<g id="edge2" class="edge">
<title>ContextoContratos&#45;&gt;ContextoTrackingEventos</title>
<path fill="none" stroke="black" stroke-width="2" d="M284.62,-416.64C284.56,-404.73 286.95,-392.55 294.4,-383.22 298.86,-377.63 360.93,-362.62 422.46,-348.89"/>
<text text-anchor="middle" x="369.9" y="-386.62" font-family="sans-serif" font-size="12.00"> &#160;&#160;&#160;&#160;&#160;&#160;&#160;&#160;&#160;&#160;&#160;&#160;&#160;&#160;&#160;&#160;&#160;&#160;&#160;&#160;&#160;&#160;&#160;&#160;&#160;&#160;&#160;&#160;&#160;&#160;&#160;&#160;&#160;&#160;&#160;&#160;&#160;&#160;&#160;</text>
<polygon fill="white" stroke="transparent" points="415.46,-339.89 415.46,-356.89 429.46,-356.89 429.46,-339.89 415.46,-339.89"/>
<text text-anchor="start" x="417.46" y="-345.29" font-family="sans-serif" font-size="12.00">D</text>
<polygon fill="white" stroke="transparent" points="277.62,-407.64 277.62,-424.64 291.62,-424.64 291.62,-407.64 277.62,-407.64"/>
<text text-anchor="start" x="279.62" y="-413.04" font-family="sans-serif" font-size="12.00">U</text>
</g>
<!-- ContextoContratos&#45;&gt;ContextoTrackingEventos -->
<g id="edge4" class="edge">
<title>ContextoContratos&#45;&gt;ContextoTrackingEventos</title>
<path fill="none" stroke="black" stroke-width="2" d="M390.26,-423.43C408.93,-415.21 428.06,-406 445.4,-396.22 462.55,-386.54 480.24,-374.53 495.99,-363.01"/>
<text text-anchor="middle" x="507.4" y="-386.62" font-family="sans-serif" font-size="12.00">Shared Kernel</text>
</g>
<!-- ContextoPagos&#45;&gt;ContextoReportesAnalitica -->
<g id="edge6" class="edge">
<title>ContextoPagos&#45;&gt;ContextoReportesAnalitica</title>
<path fill="none" stroke="black" stroke-width="2" d="M285.57,-152.95C309.54,-143.3 335.8,-132.12 359.4,-120.72 369.97,-115.61 371.43,-111.9 382.4,-107.72 427.23,-90.63 477.91,-77.72 523.98,-68.23"/>
<text text-anchor="middle" x="424.4" y="-111.12" font-family="sans-serif" font-size="12.00">Shared Kernel</text>
</g>
<!-- ContextoPagos&#45;&gt;ContextoReportesAnalitica -->
<g id="edge7" class="edge">
<title>ContextoPagos&#45;&gt;ContextoReportesAnalitica</title>
<path fill="none" stroke="black" stroke-width="2" d="M195.59,-140.81C194.7,-128.89 196.53,-116.71 204.4,-107.72 224.24,-85.04 377.1,-67.85 501.84,-57.41"/>
<text text-anchor="middle" x="279.9" y="-111.12" font-family="sans-serif" font-size="12.00"> &#160;&#160;&#160;&#160;&#160;&#160;&#160;&#160;&#160;&#160;&#160;&#160;&#160;&#160;&#160;&#160;&#160;&#160;&#160;&#160;&#160;&#160;&#160;&#160;&#160;&#160;&#160;&#160;&#160;&#160;&#160;&#160;&#160;&#160;&#160;&#160;&#160;&#160;&#160;</text>
<polygon fill="white" stroke="transparent" points="494.84,-48.41 494.84,-65.41 508.84,-65.41 508.84,-48.41 494.84,-48.41"/>
<text text-anchor="start" x="496.84" y="-53.81" font-family="sans-serif" font-size="12.00">D</text>
<polygon fill="white" stroke="transparent" points="188.59,-131.81 188.59,-148.81 202.59,-148.81 202.59,-131.81 188.59,-131.81"/>
<text text-anchor="start" x="190.59" y="-137.21" font-family="sans-serif" font-size="12.00">U</text>
</g>
<!-- ContextoTrackingEventos&#45;&gt;ContextoPagos -->
<g id="edge9" class="edge">
<title>ContextoTrackingEventos&#45;&gt;ContextoPagos</title>
<path fill="none" stroke="black" stroke-width="2" d="M402.02,-288.63C382.02,-284.61 361.73,-280.7 342.4,-277.23 315.64,-272.44 240.98,-278.09 221.4,-259.23 212.93,-251.08 208.66,-239.56 206.69,-228"/>
<text text-anchor="middle" x="263.4" y="-249.63" font-family="sans-serif" font-size="12.00">Shared Kernel</text>
</g>
<!-- ContextoTrackingEventos&#45;&gt;ContextoPagos -->
<g id="edge11" class="edge">
<title>ContextoTrackingEventos&#45;&gt;ContextoPagos</title>
<path fill="none" stroke="black" stroke-width="2" d="M407.2,-287.53C380.56,-279.55 353.26,-270.11 328.4,-259.23 321.89,-256.39 296.82,-241.01 271.16,-224.94"/>
<text text-anchor="middle" x="403.9" y="-249.63" font-family="sans-serif" font-size="12.00"> &#160;&#160;&#160;&#160;&#160;&#160;&#160;&#160;&#160;&#160;&#160;&#160;&#160;&#160;&#160;&#160;&#160;&#160;&#160;&#160;&#160;&#160;&#160;&#160;&#160;&#160;&#160;&#160;&#160;&#160;&#160;&#160;&#160;&#160;&#160;&#160;&#160;&#160;&#160;</text>
<polygon fill="white" stroke="transparent" points="264.16,-215.94 264.16,-232.94 278.16,-232.94 278.16,-215.94 264.16,-215.94"/>
<text text-anchor="start" x="266.16" y="-221.34" font-family="sans-serif" font-size="12.00">D</text>
<polygon fill="white" stroke="transparent" points="400.2,-278.53 400.2,-295.53 414.2,-295.53 414.2,-278.53 400.2,-278.53"/>
<text text-anchor="start" x="402.2" y="-283.93" font-family="sans-serif" font-size="12.00">U</text>
</g>
<!-- ContextoTrackingEventos&#45;&gt;ContextoReportesAnalitica -->
<g id="edge8" class="edge">
<title>ContextoTrackingEventos&#45;&gt;ContextoReportesAnalitica</title>
<path fill="none" stroke="black" stroke-width="2" d="M597.25,-278.61C611.66,-264.1 626.02,-246.77 635.4,-228.23 657.9,-183.78 664.88,-126.3 666.89,-87.86"/>
<text text-anchor="middle" x="703.4" y="-180.38" font-family="sans-serif" font-size="12.00">Shared Kernel</text>
</g>
<!-- ContextoTrackingEventos&#45;&gt;ContextoReportesAnalitica -->
<g id="edge10" class="edge">
<title>ContextoTrackingEventos&#45;&gt;ContextoReportesAnalitica</title>
<path fill="none" stroke="black" stroke-width="2" d="M507.77,-277.55C496.71,-262.99 486.15,-245.89 480.4,-228.23 468.08,-190.4 459.44,-172.53 480.4,-138.72 497.4,-111.3 525.18,-91.72 554.19,-77.85"/>
<text text-anchor="middle" x="555.9" y="-180.38" font-family="sans-serif" font-size="12.00"> &#160;&#160;&#160;&#160;&#160;&#160;&#160;&#160;&#160;&#160;&#160;&#160;&#160;&#160;&#160;&#160;&#160;&#160;&#160;&#160;&#160;&#160;&#160;&#160;&#160;&#160;&#160;&#160;&#160;&#160;&#160;&#160;&#160;&#160;&#160;&#160;&#160;&#160;&#160;</text>
<polygon fill="white" stroke="transparent" points="547.19,-68.85 547.19,-85.85 561.19,-85.85 561.19,-68.85 547.19,-68.85"/>
<text text-anchor="start" x="549.19" y="-74.25" font-family="sans-serif" font-size="12.00">D</text>
<polygon fill="white" stroke="transparent" points="500.77,-268.55 500.77,-285.55 514.77,-285.55 514.77,-268.55 500.77,-268.55"/>
<text text-anchor="start" x="502.77" y="-273.95" font-family="sans-serif" font-size="12.00">U</text>
</g>
<!-- ContextoGestionAsociacionesEstrategicas -->
<g id="node5" class="node">
<title>ContextoGestionAsociacionesEstrategicas</title>
<polygon fill="none" stroke="black" stroke-width="2" points="361.38,-577.97 372.68,-575.78 384.48,-573.67 396.72,-571.67 409.37,-569.78 422.38,-568.01 435.69,-566.36 449.27,-564.84 463.07,-563.46 477.03,-562.23 491.12,-561.14 505.3,-560.21 519.5,-559.43 533.71,-558.81 547.86,-558.36 561.94,-558.07 575.89,-557.94 589.69,-557.97 603.3,-558.17 616.68,-558.52 629.82,-559.04 642.67,-559.71 655.23,-560.52 667.45,-561.49 679.32,-562.59 690.83,-563.83 701.94,-565.2 712.65,-566.68 722.93,-568.28 732.78,-569.99 742.18,-571.8 751.12,-573.69 759.59,-575.67 767.57,-577.72 775.07,-579.83 782.07,-582.01 788.56,-584.22 794.54,-586.48 799.99,-588.77 804.92,-591.08 809.32,-593.4 813.18,-595.73 816.49,-598.06 819.25,-600.39 821.45,-602.69 823.08,-604.98 824.15,-607.24 824.64,-609.47 824.54,-611.66 823.86,-613.81 822.59,-615.91 820.72,-617.96 818.25,-619.96 815.17,-621.9 811.48,-623.79 807.19,-625.61 802.28,-627.36 796.76,-629.05 790.63,-630.68 783.89,-632.24 776.55,-633.72 768.61,-635.14 760.08,-636.49 750.98,-637.76 741.3,-638.97 731.08,-640.1 720.32,-641.16 709.04,-642.15 697.26,-643.06 685.01,-643.9 672.32,-644.66 659.21,-645.35 645.72,-645.96 631.87,-646.49 617.72,-646.95 603.28,-647.32 588.61,-647.62 573.76,-647.83 558.75,-647.95 543.65,-647.99 528.49,-647.95 513.34,-647.81 498.23,-647.58 483.23,-647.26 468.38,-646.84 453.73,-646.33 439.35,-645.72 425.29,-645.01 411.58,-644.2 398.3,-643.29 385.48,-642.27 373.18,-641.15 361.45,-639.93 350.32,-638.6 339.85,-637.18 330.07,-635.65 321.02,-634.02 312.75,-632.29 305.27,-630.47 298.62,-628.56 292.83,-626.56 287.91,-624.47 283.88,-622.31 280.77,-620.07 278.57,-617.76 277.29,-615.39 276.94,-612.96 277.51,-610.49 279,-607.98 281.4,-605.43 284.69,-602.86 288.86,-600.28 293.89,-597.69 299.75,-595.11 306.41,-592.54 313.85,-589.99 322.02,-587.48 330.9,-585.01 340.45,-582.6 350.62,-580.25 361.38,-577.97"/>
<text text-anchor="middle" x="566.4" y="-602.64" font-family="sans-serif" font-size="16.00">ContextoGestionAsociacionesEstrategicas</text>
</g>
<!-- ContextoGestionAsociacionesEstrategicas&#45;&gt;ContextoContratos -->
<g id="edge13" class="edge">
<title>ContextoGestionAsociacionesEstrategicas&#45;&gt;ContextoContratos</title>
<path fill="none" stroke="black" stroke-width="2" d="M372.24,-575.86C336.27,-566.47 306.25,-554.55 294.4,-539.69 287.21,-530.67 284.73,-519 284.62,-507.47"/>
<text text-anchor="middle" x="369.9" y="-530.09" font-family="sans-serif" font-size="12.00"> &#160;&#160;&#160;&#160;&#160;&#160;&#160;&#160;&#160;&#160;&#160;&#160;&#160;&#160;&#160;&#160;&#160;&#160;&#160;&#160;&#160;&#160;&#160;&#160;&#160;&#160;&#160;&#160;&#160;&#160;&#160;&#160;&#160;&#160;&#160;&#160;&#160;&#160;&#160;</text>
<polygon fill="white" stroke="transparent" points="277.62,-498.47 277.62,-515.47 291.62,-515.47 291.62,-498.47 277.62,-498.47"/>
<text text-anchor="start" x="279.62" y="-503.87" font-family="sans-serif" font-size="12.00">D</text>
<polygon fill="white" stroke="transparent" points="365.24,-566.86 365.24,-583.86 379.24,-583.86 379.24,-566.86 365.24,-566.86"/>
<text text-anchor="start" x="367.24" y="-572.26" font-family="sans-serif" font-size="12.00">U</text>
</g>
<!-- ContextoGestionAsociacionesEstrategicas&#45;&gt;ContextoContratos -->
<g id="edge15" class="edge">
<title>ContextoGestionAsociacionesEstrategicas&#45;&gt;ContextoContratos</title>
<path fill="none" stroke="black" stroke-width="2" d="M499.65,-560.53C477.98,-546.27 456.63,-532.66 445.4,-526.69 427.18,-517.01 407.19,-507.7 387.86,-499.3"/>
<text text-anchor="middle" x="507.4" y="-530.09" font-family="sans-serif" font-size="12.00">Shared Kernel</text>
</g>
<!-- ContextoGestionAsociacionesEstrategicas&#45;&gt;ContextoPagos -->
<g id="edge12" class="edge">
<title>ContextoGestionAsociacionesEstrategicas&#45;&gt;ContextoPagos</title>
<path fill="none" stroke="black" stroke-width="2" d="M362.13,-577.81C291.41,-563.26 213.19,-541.37 146.4,-508.69 75.33,-473.91 42.35,-467.69 8.4,-396.22 -26.83,-322.06 63.16,-256.61 133.4,-218.77"/>
<text text-anchor="middle" x="50.4" y="-386.62" font-family="sans-serif" font-size="12.00">Shared Kernel</text>
</g>
<!-- ContextoGestionAsociacionesEstrategicas&#45;&gt;ContextoReportesAnalitica -->
<g id="edge17" class="edge">
<title>ContextoGestionAsociacionesEstrategicas&#45;&gt;ContextoReportesAnalitica</title>
<path fill="none" stroke="black" stroke-width="2" d="M761.24,-576.03C818.16,-555.6 865.4,-521 865.4,-462.45 865.4,-462.45 865.4,-462.45 865.4,-182.48 865.4,-131.94 821.16,-98.66 774.51,-77.61"/>
<text text-anchor="middle" x="907.4" y="-318.13" font-family="sans-serif" font-size="12.00">Shared Kernel</text>
</g>
<!-- ContextoGestionAsociacionesEstrategicas&#45;&gt;ContextoReportesAnalitica -->
<g id="edge18" class="edge">
<title>ContextoGestionAsociacionesEstrategicas&#45;&gt;ContextoReportesAnalitica</title>
<path fill="none" stroke="black" stroke-width="2" d="M756.89,-574.97C867.58,-551.67 985.4,-514.62 985.4,-462.45 985.4,-462.45 985.4,-462.45 985.4,-182.48 985.4,-111.42 917.55,-76.86 844.53,-60.24"/>
<text text-anchor="middle" x="1060.9" y="-318.13" font-family="sans-serif" font-size="12.00"> &#160;&#160;&#160;&#160;&#160;&#160;&#160;&#160;&#160;&#160;&#160;&#160;&#160;&#160;&#160;&#160;&#160;&#160;&#160;&#160;&#160;&#160;&#160;&#160;&#160;&#160;&#160;&#160;&#160;&#160;&#160;&#160;&#160;&#160;&#160;&#160;&#160;&#160;&#160;</text>
<polygon fill="white" stroke="transparent" points="837.53,-51.24 837.53,-68.24 851.53,-68.24 851.53,-51.24 837.53,-51.24"/>
<text text-anchor="start" x="839.53" y="-56.64" font-family="sans-serif" font-size="12.00">D</text>
<polygon fill="white" stroke="transparent" points="749.89,-565.97 749.89,-582.97 763.89,-582.97 763.89,-565.97 749.89,-565.97"/>
<text text-anchor="start" x="751.89" y="-571.37" font-family="sans-serif" font-size="12.00">U</text>
</g>
<!-- ContextoGestionAsociacionesEstrategicas&#45;&gt;ContextoTrackingEventos -->
<g id="edge14" class="edge">
<title>ContextoGestionAsociacionesEstrategicas&#45;&gt;ContextoTrackingEventos</title>
<path fill="none" stroke="black" stroke-width="2" d="M563.65,-557.74C561,-512.73 556.76,-443.37 552.4,-383.22 551.98,-377.39 551.5,-371.25 551.02,-365.21"/>
<text text-anchor="middle" x="602.4" y="-458.35" font-family="sans-serif" font-size="12.00">Shared Kernel</text>
</g>
<!-- ContextoGestionAsociacionesEstrategicas&#45;&gt;ContextoTrackingEventos -->
<g id="edge16" class="edge">
<title>ContextoGestionAsociacionesEstrategicas&#45;&gt;ContextoTrackingEventos</title>
<path fill="none" stroke="black" stroke-width="2" d="M617.59,-558.38C630.09,-543.8 641.76,-526.78 648.4,-508.69 662.86,-469.27 665.37,-452.63 648.4,-414.22 639.29,-393.61 623.04,-375.63 606.19,-361.16"/>
<text text-anchor="middle" x="734.9" y="-458.35" font-family="sans-serif" font-size="12.00"> &#160;&#160;&#160;&#160;&#160;&#160;&#160;&#160;&#160;&#160;&#160;&#160;&#160;&#160;&#160;&#160;&#160;&#160;&#160;&#160;&#160;&#160;&#160;&#160;&#160;&#160;&#160;&#160;&#160;&#160;&#160;&#160;&#160;&#160;&#160;&#160;&#160;&#160;&#160;</text>
<polygon fill="white" stroke="transparent" points="599.19,-352.16 599.19,-369.16 613.19,-369.16 613.19,-352.16 599.19,-352.16"/>
<text text-anchor="start" x="601.19" y="-357.56" font-family="sans-serif" font-size="12.00">D</text>
<polygon fill="white" stroke="transparent" points="610.59,-549.38 610.59,-566.38 624.59,-566.38 624.59,-549.38 610.59,-549.38"/>
<text text-anchor="start" x="612.59" y="-554.78" font-family="sans-serif" font-size="12.00">U</text>
</g>
</g>
</svg>
