<svg width="2000px" height="514px"
 viewBox="0.00 0.00 2604.51 670.24" xmlns="http://www.w3.org/2000/svg" xmlns:xlink="http://www.w3.org/1999/xlink">
<g id="graph0" class="graph" transform="scale(1.0 1.0) rotate(0) translate(4 666.24)">
<title>ContextMapGraph</title>
<polygon fill="white" stroke="transparent" points="-4,4 -4,-666.24 2600.51,-666.24 2600.51,4 -4,4"/>
<!-- CumplimientoNormativoAPAC -->
<g id="node1" class="node">
<title>CumplimientoNormativoAPAC</title>
<polygon fill="none" stroke="black" stroke-width="2" points="398.95,-474.21 398.31,-477.08 397.12,-479.91 395.4,-482.72 393.13,-485.47 390.33,-488.17 387,-490.79 383.16,-493.34 378.8,-495.79 373.95,-498.15 368.62,-500.4 362.81,-502.53 356.56,-504.54 349.86,-506.43 342.75,-508.17 335.24,-509.79 327.36,-511.25 319.11,-512.57 310.53,-513.75 301.65,-514.77 292.47,-515.64 283.04,-516.36 273.38,-516.93 263.5,-517.36 253.45,-517.63 243.25,-517.76 232.93,-517.76 222.51,-517.61 212.03,-517.33 201.52,-516.92 191,-516.4 180.5,-515.75 170.06,-514.99 159.7,-514.13 149.46,-513.16 139.35,-512.11 129.41,-510.96 119.67,-509.74 110.15,-508.44 100.88,-507.06 91.89,-505.63 83.2,-504.14 74.83,-502.59 66.81,-501 59.16,-499.36 51.91,-497.69 45.06,-495.98 38.64,-494.24 32.67,-492.47 27.16,-490.68 22.12,-488.87 17.58,-487.05 13.55,-485.2 10.02,-483.34 7.02,-481.47 4.55,-479.59 2.61,-477.7 1.22,-475.81 0.37,-473.9 0.07,-472 0.31,-470.09 1.1,-468.17 2.43,-466.26 4.3,-464.34 6.7,-462.43 9.62,-460.52 13.07,-458.62 17.01,-456.73 21.46,-454.85 26.39,-452.98 31.78,-451.12 37.64,-449.29 43.92,-447.48 50.63,-445.7 57.74,-443.95 65.24,-442.24 73.09,-440.57 81.29,-438.94 89.81,-437.38 98.62,-435.87 107.7,-434.42 117.03,-433.05 126.58,-431.76 136.32,-430.55 146.24,-429.43 156.3,-428.41 166.47,-427.49 176.74,-426.69 187.07,-426 197.43,-425.43 207.79,-424.99 218.14,-424.69 228.43,-424.52 238.65,-424.5 248.76,-424.62 258.74,-424.89 268.57,-425.31 278.2,-425.88 287.63,-426.61 296.82,-427.5 305.75,-428.54 314.4,-429.73 322.73,-431.07 330.73,-432.56 338.38,-434.2 345.66,-435.97 352.54,-437.89 359,-439.92 365.04,-442.09 370.63,-444.36 375.75,-446.75 380.39,-449.23 384.55,-451.79 388.2,-454.44 391.33,-457.15 393.95,-459.92 396.03,-462.73 397.57,-465.58 398.58,-468.45 399.03,-471.33 398.95,-474.21"/>
<text text-anchor="middle" x="199.51" y="-467.62" font-family="sans-serif" font-size="16.00">CumplimientoNormativoAPAC</text>
</g>
<!-- GestionContratos -->
<g id="node2" class="node">
<title>GestionContratos</title>
<polygon fill="none" stroke="black" stroke-width="2" points="768.54,-337.54 766.02,-334.81 763.87,-332.06 762.08,-329.31 760.68,-326.56 759.66,-323.83 759.03,-321.13 758.8,-318.46 758.98,-315.83 759.56,-313.26 760.54,-310.76 761.93,-308.33 763.72,-305.98 765.91,-303.71 768.49,-301.54 771.46,-299.48 774.8,-297.51 778.51,-295.66 782.57,-293.92 786.97,-292.3 791.71,-290.79 796.75,-289.41 802.09,-288.15 807.71,-287.02 813.58,-286.01 819.7,-285.12 826.03,-284.36 832.55,-283.72 839.26,-283.19 846.11,-282.79 853.09,-282.49 860.17,-282.31 867.33,-282.24 874.56,-282.28 881.81,-282.41 889.07,-282.64 896.32,-282.97 903.53,-283.39 910.68,-283.89 917.75,-284.48 924.71,-285.15 931.55,-285.9 938.24,-286.72 944.77,-287.61 951.11,-288.57 957.26,-289.59 963.18,-290.68 968.88,-291.83 974.33,-293.03 979.52,-294.3 984.44,-295.62 989.08,-296.99 993.42,-298.41 997.46,-299.89 1001.2,-301.41 1004.62,-302.99 1007.73,-304.61 1010.5,-306.28 1012.95,-308 1015.08,-309.76 1016.87,-311.57 1018.32,-313.42 1019.45,-315.31 1020.25,-317.24 1020.72,-319.21 1020.86,-321.21 1020.68,-323.25 1020.19,-325.32 1019.38,-327.41 1018.26,-329.53 1016.83,-331.67 1015.11,-333.83 1013.09,-335.99 1010.79,-338.16 1008.21,-340.33 1005.36,-342.49 1002.24,-344.64 998.87,-346.77 995.25,-348.88 991.38,-350.95 987.29,-352.98 982.96,-354.97 978.43,-356.89 973.69,-358.75 968.75,-360.54 963.62,-362.25 958.32,-363.87 952.85,-365.39 947.23,-366.81 941.46,-368.11 935.55,-369.3 929.53,-370.36 923.39,-371.29 917.16,-372.07 910.84,-372.72 904.46,-373.21 898.01,-373.55 891.53,-373.73 885.01,-373.76 878.49,-373.62 871.96,-373.31 865.46,-372.84 858.99,-372.21 852.58,-371.41 846.23,-370.46 839.98,-369.34 833.82,-368.06 827.79,-366.64 821.9,-365.07 816.17,-363.35 810.62,-361.51 805.26,-359.53 800.11,-357.44 795.19,-355.24 790.51,-352.94 786.1,-350.54 781.97,-348.06 778.14,-345.51 774.61,-342.9 771.41,-340.24 768.54,-337.54"/>
<text text-anchor="middle" x="893.51" y="-321.42" font-family="sans-serif" font-size="16.00">GestionContratos</text>
</g>
<!-- CumplimientoNormativoAPAC&#45;&gt;GestionContratos -->
<g id="edge1" class="edge">
<title>CumplimientoNormativoAPAC&#45;&gt;GestionContratos</title>
<path fill="none" stroke="black" stroke-width="2" d="M231.41,-424.11C242.33,-411.66 255.61,-399.56 270.51,-391.99 292.36,-380.89 592.3,-352.82 767.89,-337.18"/>
<text text-anchor="middle" x="346.01" y="-395.39" font-family="sans-serif" font-size="12.00"> &#160;&#160;&#160;&#160;&#160;&#160;&#160;&#160;&#160;&#160;&#160;&#160;&#160;&#160;&#160;&#160;&#160;&#160;&#160;&#160;&#160;&#160;&#160;&#160;&#160;&#160;&#160;&#160;&#160;&#160;&#160;&#160;&#160;&#160;&#160;&#160;&#160;&#160;&#160;</text>
<polygon fill="white" stroke="transparent" points="744.89,-327.18 744.89,-346.18 760.89,-346.18 760.89,-327.18 744.89,-327.18"/>
<polyline fill="none" stroke="black" points="760.89,-327.18 760.89,-346.18 "/>
<text text-anchor="start" x="747.89" y="-333.58" font-family="sans-serif" font-size="12.00">D</text>
<polygon fill="white" stroke="transparent" points="760.89,-327.18 760.89,-346.18 790.89,-346.18 790.89,-327.18 760.89,-327.18"/>
<polygon fill="none" stroke="black" points="760.89,-327.18 760.89,-346.18 790.89,-346.18 790.89,-327.18 760.89,-327.18"/>
<text text-anchor="start" x="763.89" y="-333.58" font-family="sans-serif" font-size="12.00">ACL</text>
<polygon fill="white" stroke="transparent" points="207.41,-414.11 207.41,-433.11 223.41,-433.11 223.41,-414.11 207.41,-414.11"/>
<polyline fill="none" stroke="black" points="223.41,-414.11 223.41,-433.11 "/>
<text text-anchor="start" x="210.41" y="-420.51" font-family="sans-serif" font-size="12.00">U</text>
<polygon fill="white" stroke="transparent" points="223.41,-414.11 223.41,-433.11 256.41,-433.11 256.41,-414.11 223.41,-414.11"/>
<polygon fill="none" stroke="black" points="223.41,-414.11 223.41,-433.11 256.41,-433.11 256.41,-414.11 223.41,-414.11"/>
<text text-anchor="start" x="226.41" y="-420.51" font-family="sans-serif" font-size="12.00">OHS</text>
</g>
<!-- Pagos -->
<g id="node3" class="node">
<title>Pagos</title>
<polygon fill="none" stroke="black" stroke-width="2" points="1318.29,-139.95 1322.37,-139.16 1326.47,-138.48 1330.58,-137.93 1334.68,-137.5 1338.75,-137.21 1342.78,-137.05 1346.75,-137.02 1350.65,-137.12 1354.46,-137.36 1358.17,-137.73 1361.78,-138.24 1365.26,-138.89 1368.6,-139.66 1371.8,-140.56 1374.85,-141.6 1377.75,-142.75 1380.47,-144.03 1383.02,-145.43 1385.39,-146.93 1387.59,-148.55 1389.6,-150.27 1391.42,-152.08 1393.06,-153.99 1394.51,-155.98 1395.77,-158.05 1396.85,-160.19 1397.75,-162.39 1398.47,-164.65 1399.02,-166.96 1399.39,-169.31 1399.6,-171.7 1399.64,-174.1 1399.53,-176.53 1399.26,-178.96 1398.85,-181.4 1398.3,-183.83 1397.62,-186.24 1396.81,-188.63 1395.87,-191 1394.81,-193.32 1393.64,-195.61 1392.36,-197.84 1390.98,-200.02 1389.5,-202.13 1387.93,-204.18 1386.26,-206.15 1384.5,-208.04 1382.66,-209.85 1380.74,-211.57 1378.74,-213.2 1376.66,-214.74 1374.5,-216.17 1372.27,-217.5 1369.97,-218.73 1367.6,-219.85 1365.16,-220.87 1362.65,-221.77 1360.08,-222.57 1357.44,-223.25 1354.74,-223.82 1351.98,-224.27 1349.16,-224.62 1346.28,-224.85 1343.35,-224.98 1340.37,-224.99 1337.34,-224.9 1334.27,-224.69 1331.16,-224.38 1328.02,-223.97 1324.85,-223.45 1321.67,-222.84 1318.47,-222.12 1315.26,-221.31 1312.06,-220.41 1308.87,-219.41 1305.7,-218.33 1302.56,-217.16 1299.46,-215.9 1296.41,-214.57 1293.43,-213.16 1290.52,-211.67 1287.69,-210.12 1284.97,-208.49 1282.35,-206.8 1279.86,-205.05 1277.5,-203.24 1275.28,-201.38 1273.23,-199.46 1271.33,-197.5 1269.62,-195.5 1268.1,-193.45 1266.78,-191.38 1265.66,-189.27 1264.76,-187.14 1264.08,-184.98 1263.63,-182.81 1263.41,-180.63 1263.43,-178.44 1263.7,-176.25 1264.21,-174.07 1264.96,-171.89 1265.96,-169.73 1267.2,-167.59 1268.68,-165.47 1270.4,-163.39 1272.35,-161.35 1274.52,-159.35 1276.9,-157.4 1279.5,-155.5 1282.29,-153.67 1285.27,-151.9 1288.43,-150.21 1291.75,-148.59 1295.21,-147.06 1298.81,-145.63 1302.53,-144.28 1306.36,-143.04 1310.27,-141.9 1314.26,-140.87 1318.29,-139.95"/>
<text text-anchor="middle" x="1335.51" y="-178.34" font-family="sans-serif" font-size="16.00">Pagos</text>
</g>
<!-- CumplimientoNormativoAPAC&#45;&gt;Pagos -->
<g id="edge2" class="edge">
<title>CumplimientoNormativoAPAC&#45;&gt;Pagos</title>
<path fill="none" stroke="black" stroke-width="2" d="M220.41,-424.28C227.59,-412.43 236.62,-400.61 247.51,-391.99 376.26,-290.03 438.31,-312.61 598.51,-276.46 839.59,-222.05 1132.7,-196.81 1264.87,-187.56"/>
<text text-anchor="middle" x="674.01" y="-322.12" font-family="sans-serif" font-size="12.00"> &#160;&#160;&#160;&#160;&#160;&#160;&#160;&#160;&#160;&#160;&#160;&#160;&#160;&#160;&#160;&#160;&#160;&#160;&#160;&#160;&#160;&#160;&#160;&#160;&#160;&#160;&#160;&#160;&#160;&#160;&#160;&#160;&#160;&#160;&#160;&#160;&#160;&#160;&#160;</text>
<polygon fill="white" stroke="transparent" points="1241.87,-177.56 1241.87,-196.56 1257.87,-196.56 1257.87,-177.56 1241.87,-177.56"/>
<polyline fill="none" stroke="black" points="1257.87,-177.56 1257.87,-196.56 "/>
<text text-anchor="start" x="1244.87" y="-183.96" font-family="sans-serif" font-size="12.00">D</text>
<polygon fill="white" stroke="transparent" points="1257.87,-177.56 1257.87,-196.56 1287.87,-196.56 1287.87,-177.56 1257.87,-177.56"/>
<polygon fill="none" stroke="black" points="1257.87,-177.56 1257.87,-196.56 1287.87,-196.56 1287.87,-177.56 1257.87,-177.56"/>
<text text-anchor="start" x="1260.87" y="-183.96" font-family="sans-serif" font-size="12.00">ACL</text>
<polygon fill="white" stroke="transparent" points="196.41,-414.28 196.41,-433.28 212.41,-433.28 212.41,-414.28 196.41,-414.28"/>
<polyline fill="none" stroke="black" points="212.41,-414.28 212.41,-433.28 "/>
<text text-anchor="start" x="199.41" y="-420.68" font-family="sans-serif" font-size="12.00">U</text>
<polygon fill="white" stroke="transparent" points="212.41,-414.28 212.41,-433.28 245.41,-433.28 245.41,-414.28 212.41,-414.28"/>
<polygon fill="none" stroke="black" points="212.41,-414.28 212.41,-433.28 245.41,-433.28 245.41,-414.28 212.41,-414.28"/>
<text text-anchor="start" x="215.41" y="-420.68" font-family="sans-serif" font-size="12.00">OHS</text>
</g>
<!-- GestionContratos&#45;&gt;Pagos -->
<g id="edge3" class="edge">
<title>GestionContratos&#45;&gt;Pagos</title>
<path fill="none" stroke="black" stroke-width="2" d="M928.7,-285.41C944.11,-270.69 963.29,-255.15 983.51,-245.46 1073.89,-202.13 1190.33,-188.67 1263.97,-184.64"/>
<text text-anchor="middle" x="1059.01" y="-248.86" font-family="sans-serif" font-size="12.00"> &#160;&#160;&#160;&#160;&#160;&#160;&#160;&#160;&#160;&#160;&#160;&#160;&#160;&#160;&#160;&#160;&#160;&#160;&#160;&#160;&#160;&#160;&#160;&#160;&#160;&#160;&#160;&#160;&#160;&#160;&#160;&#160;&#160;&#160;&#160;&#160;&#160;&#160;&#160;</text>
<polygon fill="white" stroke="transparent" points="1256.97,-175.64 1256.97,-192.64 1270.97,-192.64 1270.97,-175.64 1256.97,-175.64"/>
<text text-anchor="start" x="1258.97" y="-181.04" font-family="sans-serif" font-size="12.00">D</text>
<polygon fill="white" stroke="transparent" points="904.7,-275.41 904.7,-294.41 920.7,-294.41 920.7,-275.41 904.7,-275.41"/>
<polyline fill="none" stroke="black" points="920.7,-275.41 920.7,-294.41 "/>
<text text-anchor="start" x="907.7" y="-281.81" font-family="sans-serif" font-size="12.00">U</text>
<polygon fill="white" stroke="transparent" points="920.7,-275.41 920.7,-294.41 953.7,-294.41 953.7,-275.41 920.7,-275.41"/>
<polygon fill="none" stroke="black" points="920.7,-275.41 920.7,-294.41 953.7,-294.41 953.7,-275.41 920.7,-275.41"/>
<text text-anchor="start" x="923.7" y="-281.81" font-family="sans-serif" font-size="12.00">OHS</text>
</g>
<!-- ReportesAnalitica -->
<g id="node4" class="node">
<title>ReportesAnalitica</title>
<polygon fill="none" stroke="black" stroke-width="2" points="2134.73,-87.75 2126.1,-87.71 2117.54,-87.55 2109.08,-87.26 2100.76,-86.86 2092.59,-86.34 2084.63,-85.71 2076.89,-84.95 2069.42,-84.08 2062.22,-83.1 2055.34,-82.01 2048.8,-80.81 2042.61,-79.51 2036.79,-78.11 2031.37,-76.61 2026.36,-75.02 2021.77,-73.34 2017.61,-71.58 2013.89,-69.74 2010.61,-67.82 2007.78,-65.84 2005.39,-63.8 2003.45,-61.7 2001.95,-59.55 2000.89,-57.36 2000.26,-55.12 2000.05,-52.86 2000.25,-50.57 2000.85,-48.26 2001.83,-45.94 2003.17,-43.62 2004.87,-41.29 2006.91,-38.98 2009.27,-36.67 2011.92,-34.39 2014.87,-32.14 2018.08,-29.92 2021.54,-27.74 2025.23,-25.61 2029.13,-23.53 2033.24,-21.51 2037.52,-19.55 2041.97,-17.66 2046.57,-15.85 2051.31,-14.11 2056.18,-12.46 2061.15,-10.9 2066.23,-9.43 2071.4,-8.06 2076.65,-6.79 2081.98,-5.62 2087.37,-4.57 2092.82,-3.62 2098.32,-2.78 2103.87,-2.05 2109.47,-1.45 2115.1,-0.96 2120.76,-0.58 2126.46,-0.33 2132.19,-0.2 2137.93,-0.19 2143.7,-0.29 2149.48,-0.52 2155.28,-0.86 2161.08,-1.32 2166.88,-1.9 2172.67,-2.58 2178.45,-3.38 2184.22,-4.29 2189.95,-5.31 2195.64,-6.43 2201.29,-7.65 2206.87,-8.96 2212.38,-10.37 2217.8,-11.87 2223.11,-13.45 2228.31,-15.12 2233.38,-16.86 2238.29,-18.67 2243.02,-20.55 2247.57,-22.49 2251.91,-24.49 2256.02,-26.54 2259.88,-28.63 2263.47,-30.77 2266.76,-32.94 2269.75,-35.14 2272.41,-37.36 2274.72,-39.6 2276.66,-41.85 2278.21,-44.11 2279.37,-46.37 2280.11,-48.62 2280.42,-50.86 2280.29,-53.08 2279.71,-55.28 2278.67,-57.45 2277.16,-59.58 2275.19,-61.68 2272.74,-63.72 2269.83,-65.72 2266.44,-67.65 2262.6,-69.53 2258.3,-71.34 2253.56,-73.07 2248.39,-74.73 2242.81,-76.3 2236.83,-77.79 2230.47,-79.19 2223.76,-80.5 2216.72,-81.7 2209.38,-82.81 2201.76,-83.81 2193.89,-84.7 2185.81,-85.48 2177.55,-86.15 2169.14,-86.71 2160.62,-87.14 2152.02,-87.46 2143.38,-87.67 2134.73,-87.75"/>
<text text-anchor="middle" x="2138.51" y="-40.12" font-family="sans-serif" font-size="16.00">ReportesAnalitica</text>
</g>
<!-- Pagos&#45;&gt;ReportesAnalitica -->
<g id="edge4" class="edge">
<title>Pagos&#45;&gt;ReportesAnalitica</title>
<path fill="none" stroke="black" stroke-width="2" d="M1399.53,-170.28C1531.25,-147.94 1834.83,-96.44 2009.14,-66.86"/>
<text text-anchor="middle" x="1836.01" y="-109.23" font-family="sans-serif" font-size="12.00"> &#160;&#160;&#160;&#160;&#160;&#160;&#160;&#160;&#160;&#160;&#160;&#160;&#160;&#160;&#160;&#160;&#160;&#160;&#160;&#160;&#160;&#160;&#160;&#160;&#160;&#160;&#160;&#160;&#160;&#160;&#160;&#160;&#160;&#160;&#160;&#160;&#160;&#160;&#160;</text>
<polygon fill="white" stroke="transparent" points="2002.14,-57.86 2002.14,-74.86 2016.14,-74.86 2016.14,-57.86 2002.14,-57.86"/>
<text text-anchor="start" x="2004.14" y="-63.26" font-family="sans-serif" font-size="12.00">D</text>
<polygon fill="white" stroke="transparent" points="1381.53,-160.28 1381.53,-179.28 1397.53,-179.28 1397.53,-160.28 1381.53,-160.28"/>
<polyline fill="none" stroke="black" points="1397.53,-160.28 1397.53,-179.28 "/>
<text text-anchor="start" x="1384.53" y="-166.68" font-family="sans-serif" font-size="12.00">U</text>
<polygon fill="white" stroke="transparent" points="1397.53,-160.28 1397.53,-179.28 1418.53,-179.28 1418.53,-160.28 1397.53,-160.28"/>
<polygon fill="none" stroke="black" points="1397.53,-160.28 1397.53,-179.28 1418.53,-179.28 1418.53,-160.28 1397.53,-160.28"/>
<text text-anchor="start" x="1400.53" y="-166.68" font-family="sans-serif" font-size="12.00">PL</text>
</g>
<!-- CumplimientoNormativoEMEA -->
<g id="node5" class="node">
<title>CumplimientoNormativoEMEA</title>
<polygon fill="none" stroke="black" stroke-width="2" points="1582.91,-439.52 1592.37,-437.52 1602.15,-435.63 1612.21,-433.84 1622.53,-432.16 1633.05,-430.61 1643.74,-429.19 1654.56,-427.91 1665.48,-426.77 1676.45,-425.77 1687.45,-424.92 1698.43,-424.23 1709.36,-423.7 1720.21,-423.33 1730.95,-423.11 1741.55,-423.06 1751.98,-423.17 1762.22,-423.44 1772.24,-423.86 1782.01,-424.45 1791.52,-425.18 1800.75,-426.07 1809.69,-427.1 1818.3,-428.27 1826.59,-429.57 1834.54,-431 1842.14,-432.55 1849.38,-434.22 1856.25,-435.99 1862.75,-437.86 1868.86,-439.82 1874.59,-441.87 1879.92,-443.98 1884.87,-446.17 1889.42,-448.41 1893.57,-450.69 1897.32,-453.02 1900.67,-455.37 1903.63,-457.75 1906.17,-460.14 1908.32,-462.53 1910.06,-464.92 1911.39,-467.3 1912.32,-469.67 1912.84,-472.01 1912.95,-474.32 1912.65,-476.6 1911.94,-478.83 1910.82,-481.01 1909.27,-483.15 1907.31,-485.22 1904.93,-487.24 1902.13,-489.19 1898.91,-491.08 1895.26,-492.89 1891.19,-494.64 1886.69,-496.31 1881.77,-497.9 1876.43,-499.42 1870.67,-500.86 1864.5,-502.22 1857.92,-503.5 1850.93,-504.7 1843.55,-505.82 1835.78,-506.86 1827.63,-507.82 1819.12,-508.69 1810.27,-509.48 1801.07,-510.19 1791.57,-510.82 1781.77,-511.37 1771.7,-511.83 1761.37,-512.21 1750.83,-512.51 1740.09,-512.73 1729.18,-512.86 1718.14,-512.9 1707,-512.86 1695.79,-512.73 1684.54,-512.51 1673.3,-512.21 1662.11,-511.82 1650.99,-511.33 1640,-510.76 1629.17,-510.09 1618.53,-509.33 1608.14,-508.47 1598.03,-507.53 1588.24,-506.48 1578.81,-505.35 1569.78,-504.12 1561.18,-502.79 1553.04,-501.37 1545.42,-499.86 1538.32,-498.26 1531.8,-496.56 1525.86,-494.79 1520.54,-492.92 1515.87,-490.98 1511.85,-488.96 1508.51,-486.86 1505.86,-484.69 1503.92,-482.46 1502.68,-480.18 1502.16,-477.83 1502.36,-475.45 1503.27,-473.02 1504.89,-470.56 1507.21,-468.08 1510.22,-465.58 1513.91,-463.07 1518.25,-460.56 1523.24,-458.06 1528.84,-455.58 1535.03,-453.13 1541.78,-450.72 1549.07,-448.35 1556.86,-446.03 1565.12,-443.79 1573.82,-441.61 1582.91,-439.52"/>
<text text-anchor="middle" x="1721.51" y="-467.62" font-family="sans-serif" font-size="16.00">CumplimientoNormativoEMEA</text>
</g>
<!-- CumplimientoNormativoEMEA&#45;&gt;GestionContratos -->
<g id="edge5" class="edge">
<title>CumplimientoNormativoEMEA&#45;&gt;GestionContratos</title>
<path fill="none" stroke="black" stroke-width="2" d="M1581.95,-439.72C1552.8,-433.78 1522.21,-427.88 1493.51,-422.99 1331.3,-395.33 1288.77,-401.42 1126.51,-373.99 1083.46,-366.71 1036.21,-357.3 995.59,-348.75"/>
<text text-anchor="middle" x="1442.01" y="-395.39" font-family="sans-serif" font-size="12.00"> &#160;&#160;&#160;&#160;&#160;&#160;&#160;&#160;&#160;&#160;&#160;&#160;&#160;&#160;&#160;&#160;&#160;&#160;&#160;&#160;&#160;&#160;&#160;&#160;&#160;&#160;&#160;&#160;&#160;&#160;&#160;&#160;&#160;&#160;&#160;&#160;&#160;&#160;&#160;</text>
<polygon fill="white" stroke="transparent" points="972.59,-338.75 972.59,-357.75 988.59,-357.75 988.59,-338.75 972.59,-338.75"/>
<polyline fill="none" stroke="black" points="988.59,-338.75 988.59,-357.75 "/>
<text text-anchor="start" x="975.59" y="-345.15" font-family="sans-serif" font-size="12.00">D</text>
<polygon fill="white" stroke="transparent" points="988.59,-338.75 988.59,-357.75 1018.59,-357.75 1018.59,-338.75 988.59,-338.75"/>
<polygon fill="none" stroke="black" points="988.59,-338.75 988.59,-357.75 1018.59,-357.75 1018.59,-338.75 988.59,-338.75"/>
<text text-anchor="start" x="991.59" y="-345.15" font-family="sans-serif" font-size="12.00">ACL</text>
<polygon fill="white" stroke="transparent" points="1557.95,-429.72 1557.95,-448.72 1573.95,-448.72 1573.95,-429.72 1557.95,-429.72"/>
<polyline fill="none" stroke="black" points="1573.95,-429.72 1573.95,-448.72 "/>
<text text-anchor="start" x="1560.95" y="-436.12" font-family="sans-serif" font-size="12.00">U</text>
<polygon fill="white" stroke="transparent" points="1573.95,-429.72 1573.95,-448.72 1606.95,-448.72 1606.95,-429.72 1573.95,-429.72"/>
<polygon fill="none" stroke="black" points="1573.95,-429.72 1573.95,-448.72 1606.95,-448.72 1606.95,-429.72 1573.95,-429.72"/>
<text text-anchor="start" x="1576.95" y="-436.12" font-family="sans-serif" font-size="12.00">OHS</text>
</g>
<!-- CumplimientoNormativoEMEA&#45;&gt;Pagos -->
<g id="edge6" class="edge">
<title>CumplimientoNormativoEMEA&#45;&gt;Pagos</title>
<path fill="none" stroke="black" stroke-width="2" d="M1669.36,-426.09C1621.14,-385.72 1546.96,-325.15 1479.51,-276.46 1447.51,-253.35 1410.06,-229.17 1381.37,-211.21"/>
<text text-anchor="middle" x="1678.01" y="-322.12" font-family="sans-serif" font-size="12.00"> &#160;&#160;&#160;&#160;&#160;&#160;&#160;&#160;&#160;&#160;&#160;&#160;&#160;&#160;&#160;&#160;&#160;&#160;&#160;&#160;&#160;&#160;&#160;&#160;&#160;&#160;&#160;&#160;&#160;&#160;&#160;&#160;&#160;&#160;&#160;&#160;&#160;&#160;&#160;</text>
<polygon fill="white" stroke="transparent" points="1358.37,-201.21 1358.37,-220.21 1374.37,-220.21 1374.37,-201.21 1358.37,-201.21"/>
<polyline fill="none" stroke="black" points="1374.37,-201.21 1374.37,-220.21 "/>
<text text-anchor="start" x="1361.37" y="-207.61" font-family="sans-serif" font-size="12.00">D</text>
<polygon fill="white" stroke="transparent" points="1374.37,-201.21 1374.37,-220.21 1404.37,-220.21 1404.37,-201.21 1374.37,-201.21"/>
<polygon fill="none" stroke="black" points="1374.37,-201.21 1374.37,-220.21 1404.37,-220.21 1404.37,-201.21 1374.37,-201.21"/>
<text text-anchor="start" x="1377.37" y="-207.61" font-family="sans-serif" font-size="12.00">ACL</text>
<polygon fill="white" stroke="transparent" points="1645.36,-416.09 1645.36,-435.09 1661.36,-435.09 1661.36,-416.09 1645.36,-416.09"/>
<polyline fill="none" stroke="black" points="1661.36,-416.09 1661.36,-435.09 "/>
<text text-anchor="start" x="1648.36" y="-422.49" font-family="sans-serif" font-size="12.00">U</text>
<polygon fill="white" stroke="transparent" points="1661.36,-416.09 1661.36,-435.09 1694.36,-435.09 1694.36,-416.09 1661.36,-416.09"/>
<polygon fill="none" stroke="black" points="1661.36,-416.09 1661.36,-435.09 1694.36,-435.09 1694.36,-416.09 1661.36,-416.09"/>
<text text-anchor="start" x="1664.36" y="-422.49" font-family="sans-serif" font-size="12.00">OHS</text>
</g>
<!-- CumplimientoNormativoLATAM -->
<g id="node6" class="node">
<title>CumplimientoNormativoLATAM</title>
<polygon fill="none" stroke="black" stroke-width="2" points="1123.12,-437.8 1133.32,-435.9 1143.83,-434.11 1154.61,-432.42 1165.61,-430.86 1176.8,-429.42 1188.12,-428.12 1199.55,-426.95 1211.04,-425.93 1222.56,-425.06 1234.05,-424.33 1245.5,-423.77 1256.85,-423.36 1268.09,-423.1 1279.16,-423.01 1290.06,-423.08 1300.74,-423.31 1311.18,-423.69 1321.36,-424.24 1331.25,-424.94 1340.83,-425.78 1350.09,-426.78 1359.01,-427.91 1367.56,-429.19 1375.75,-430.59 1383.56,-432.12 1390.98,-433.76 1397.99,-435.52 1404.61,-437.38 1410.81,-439.33 1416.6,-441.37 1421.97,-443.49 1426.93,-445.68 1431.47,-447.93 1435.58,-450.23 1439.28,-452.57 1442.56,-454.95 1445.41,-457.35 1447.86,-459.77 1449.88,-462.2 1451.49,-464.63 1452.68,-467.05 1453.46,-469.46 1453.83,-471.84 1453.79,-474.2 1453.33,-476.52 1452.46,-478.8 1451.17,-481.04 1449.48,-483.22 1447.36,-485.34 1444.84,-487.41 1441.89,-489.41 1438.53,-491.33 1434.76,-493.19 1430.56,-494.97 1425.95,-496.68 1420.92,-498.31 1415.48,-499.85 1409.62,-501.31 1403.35,-502.69 1396.68,-503.99 1389.6,-505.2 1382.13,-506.33 1374.28,-507.37 1366.04,-508.32 1357.44,-509.19 1348.49,-509.97 1339.2,-510.66 1329.59,-511.27 1319.68,-511.79 1309.48,-512.23 1299.02,-512.58 1288.33,-512.85 1277.43,-513.02 1266.36,-513.12 1255.13,-513.12 1243.78,-513.04 1232.35,-512.87 1220.87,-512.61 1209.39,-512.27 1197.92,-511.83 1186.53,-511.31 1175.24,-510.7 1164.09,-509.99 1153.14,-509.2 1142.41,-508.31 1131.95,-507.34 1121.81,-506.27 1112.01,-505.11 1102.61,-503.86 1093.64,-502.52 1085.14,-501.09 1077.15,-499.57 1069.69,-497.97 1062.81,-496.28 1056.53,-494.5 1050.87,-492.65 1045.88,-490.72 1041.56,-488.71 1037.93,-486.63 1035.02,-484.49 1032.84,-482.28 1031.4,-480.02 1030.69,-477.71 1030.74,-475.35 1031.53,-472.96 1033.07,-470.53 1035.34,-468.08 1038.34,-465.61 1042.05,-463.14 1046.45,-460.66 1051.53,-458.19 1057.27,-455.74 1063.63,-453.31 1070.6,-450.92 1078.13,-448.57 1086.2,-446.28 1094.77,-444.04 1103.8,-441.88 1113.27,-439.8 1123.12,-437.8"/>
<text text-anchor="middle" x="1257.51" y="-467.62" font-family="sans-serif" font-size="16.00">CumplimientoNormativoLATAM</text>
</g>
<!-- CumplimientoNormativoLATAM&#45;&gt;GestionContratos -->
<g id="edge8" class="edge">
<title>CumplimientoNormativoLATAM&#45;&gt;GestionContratos</title>
<path fill="none" stroke="black" stroke-width="2" d="M1159.49,-431.59C1101.69,-408.69 1029.41,-380.06 974.8,-358.43"/>
<text text-anchor="middle" x="1162.01" y="-395.39" font-family="sans-serif" font-size="12.00"> &#160;&#160;&#160;&#160;&#160;&#160;&#160;&#160;&#160;&#160;&#160;&#160;&#160;&#160;&#160;&#160;&#160;&#160;&#160;&#160;&#160;&#160;&#160;&#160;&#160;&#160;&#160;&#160;&#160;&#160;&#160;&#160;&#160;&#160;&#160;&#160;&#160;&#160;&#160;</text>
<polygon fill="white" stroke="transparent" points="951.8,-348.43 951.8,-367.43 967.8,-367.43 967.8,-348.43 951.8,-348.43"/>
<polyline fill="none" stroke="black" points="967.8,-348.43 967.8,-367.43 "/>
<text text-anchor="start" x="954.8" y="-354.83" font-family="sans-serif" font-size="12.00">D</text>
<polygon fill="white" stroke="transparent" points="967.8,-348.43 967.8,-367.43 997.8,-367.43 997.8,-348.43 967.8,-348.43"/>
<polygon fill="none" stroke="black" points="967.8,-348.43 967.8,-367.43 997.8,-367.43 997.8,-348.43 967.8,-348.43"/>
<text text-anchor="start" x="970.8" y="-354.83" font-family="sans-serif" font-size="12.00">ACL</text>
<polygon fill="white" stroke="transparent" points="1135.49,-421.59 1135.49,-440.59 1151.49,-440.59 1151.49,-421.59 1135.49,-421.59"/>
<polyline fill="none" stroke="black" points="1151.49,-421.59 1151.49,-440.59 "/>
<text text-anchor="start" x="1138.49" y="-427.99" font-family="sans-serif" font-size="12.00">U</text>
<polygon fill="white" stroke="transparent" points="1151.49,-421.59 1151.49,-440.59 1184.49,-440.59 1184.49,-421.59 1151.49,-421.59"/>
<polygon fill="none" stroke="black" points="1151.49,-421.59 1151.49,-440.59 1184.49,-440.59 1184.49,-421.59 1151.49,-421.59"/>
<text text-anchor="start" x="1154.49" y="-427.99" font-family="sans-serif" font-size="12.00">OHS</text>
</g>
<!-- CumplimientoNormativoLATAM&#45;&gt;Pagos -->
<g id="edge7" class="edge">
<title>CumplimientoNormativoLATAM&#45;&gt;Pagos</title>
<path fill="none" stroke="black" stroke-width="2" d="M1283.4,-422.93C1290.83,-407.67 1298.32,-390.44 1303.51,-373.99 1319.33,-323.85 1327.77,-263.69 1331.94,-224.5"/>
<text text-anchor="middle" x="1400.01" y="-322.12" font-family="sans-serif" font-size="12.00"> &#160;&#160;&#160;&#160;&#160;&#160;&#160;&#160;&#160;&#160;&#160;&#160;&#160;&#160;&#160;&#160;&#160;&#160;&#160;&#160;&#160;&#160;&#160;&#160;&#160;&#160;&#160;&#160;&#160;&#160;&#160;&#160;&#160;&#160;&#160;&#160;&#160;&#160;&#160;</text>
<polygon fill="white" stroke="transparent" points="1308.94,-214.5 1308.94,-233.5 1324.94,-233.5 1324.94,-214.5 1308.94,-214.5"/>
<polyline fill="none" stroke="black" points="1324.94,-214.5 1324.94,-233.5 "/>
<text text-anchor="start" x="1311.94" y="-220.9" font-family="sans-serif" font-size="12.00">D</text>
<polygon fill="white" stroke="transparent" points="1324.94,-214.5 1324.94,-233.5 1354.94,-233.5 1354.94,-214.5 1324.94,-214.5"/>
<polygon fill="none" stroke="black" points="1324.94,-214.5 1324.94,-233.5 1354.94,-233.5 1354.94,-214.5 1324.94,-214.5"/>
<text text-anchor="start" x="1327.94" y="-220.9" font-family="sans-serif" font-size="12.00">ACL</text>
<polygon fill="white" stroke="transparent" points="1259.4,-412.93 1259.4,-431.93 1275.4,-431.93 1275.4,-412.93 1259.4,-412.93"/>
<polyline fill="none" stroke="black" points="1275.4,-412.93 1275.4,-431.93 "/>
<text text-anchor="start" x="1262.4" y="-419.33" font-family="sans-serif" font-size="12.00">U</text>
<polygon fill="white" stroke="transparent" points="1275.4,-412.93 1275.4,-431.93 1308.4,-431.93 1308.4,-412.93 1275.4,-412.93"/>
<polygon fill="none" stroke="black" points="1275.4,-412.93 1275.4,-431.93 1308.4,-431.93 1308.4,-412.93 1275.4,-412.93"/>
<text text-anchor="start" x="1278.4" y="-419.33" font-family="sans-serif" font-size="12.00">OHS</text>
</g>
<!-- CumplimientoNormativoNA -->
<g id="node7" class="node">
<title>CumplimientoNormativoNA</title>
<polygon fill="none" stroke="black" stroke-width="2" points="959.32,-445.46 966.72,-447.74 973.65,-450.07 980.1,-452.46 986.02,-454.88 991.4,-457.34 996.21,-459.81 1000.42,-462.3 1004.03,-464.79 1007.01,-467.27 1009.35,-469.74 1011.03,-472.19 1012.06,-474.61 1012.42,-476.99 1012.11,-479.33 1011.13,-481.62 1009.5,-483.85 1007.2,-486.02 1004.26,-488.13 1000.69,-490.16 996.49,-492.12 991.7,-494 986.33,-495.8 980.4,-497.51 973.94,-499.14 966.98,-500.68 959.55,-502.12 951.67,-503.48 943.38,-504.74 934.72,-505.91 925.72,-506.99 916.41,-507.98 906.84,-508.87 897.04,-509.67 887.04,-510.37 876.88,-510.99 866.61,-511.52 856.26,-511.95 845.86,-512.3 835.45,-512.55 825.06,-512.73 814.73,-512.81 804.48,-512.81 794.36,-512.72 784.38,-512.55 774.58,-512.29 764.98,-511.95 755.6,-511.52 746.47,-511.01 737.61,-510.42 729.04,-509.75 720.76,-508.99 712.8,-508.15 705.18,-507.23 697.9,-506.22 690.97,-505.13 684.4,-503.96 678.2,-502.71 672.37,-501.37 666.92,-499.96 661.86,-498.46 657.18,-496.89 652.88,-495.24 648.98,-493.51 645.46,-491.71 642.33,-489.84 639.58,-487.9 637.23,-485.9 635.25,-483.84 633.66,-481.71 632.45,-479.54 631.63,-477.31 631.18,-475.04 631.11,-472.73 631.42,-470.4 632.1,-468.03 633.16,-465.65 634.6,-463.25 636.41,-460.86 638.6,-458.46 641.16,-456.08 644.09,-453.72 647.4,-451.38 651.08,-449.08 655.13,-446.83 659.55,-444.64 664.35,-442.5 669.51,-440.44 675.03,-438.46 680.91,-436.57 687.15,-434.77 693.74,-433.08 700.67,-431.5 707.94,-430.05 715.53,-428.71 723.43,-427.51 731.64,-426.45 740.14,-425.53 748.9,-424.76 757.93,-424.14 767.18,-423.68 776.66,-423.37 786.32,-423.23 796.16,-423.24 806.13,-423.41 816.23,-423.74 826.4,-424.24 836.64,-424.88 846.9,-425.68 857.15,-426.64 867.36,-427.74 877.49,-428.98 887.52,-430.35 897.39,-431.86 907.08,-433.49 916.55,-435.24 925.76,-437.1 934.68,-439.06 943.26,-441.11 951.49,-443.25 959.32,-445.46"/>
<text text-anchor="middle" x="808.51" y="-467.62" font-family="sans-serif" font-size="16.00">CumplimientoNormativoNA</text>
</g>
<!-- CumplimientoNormativoNA&#45;&gt;GestionContratos -->
<g id="edge10" class="edge">
<title>CumplimientoNormativoNA&#45;&gt;GestionContratos</title>
<path fill="none" stroke="black" stroke-width="2" d="M802.46,-423.2C802.87,-412.51 804.8,-401.51 809.51,-391.99 814.11,-382.69 820.72,-374.32 828.24,-366.91"/>
<text text-anchor="middle" x="885.01" y="-395.39" font-family="sans-serif" font-size="12.00"> &#160;&#160;&#160;&#160;&#160;&#160;&#160;&#160;&#160;&#160;&#160;&#160;&#160;&#160;&#160;&#160;&#160;&#160;&#160;&#160;&#160;&#160;&#160;&#160;&#160;&#160;&#160;&#160;&#160;&#160;&#160;&#160;&#160;&#160;&#160;&#160;&#160;&#160;&#160;</text>
<polygon fill="white" stroke="transparent" points="805.24,-356.91 805.24,-375.91 821.24,-375.91 821.24,-356.91 805.24,-356.91"/>
<polyline fill="none" stroke="black" points="821.24,-356.91 821.24,-375.91 "/>
<text text-anchor="start" x="808.24" y="-363.31" font-family="sans-serif" font-size="12.00">D</text>
<polygon fill="white" stroke="transparent" points="821.24,-356.91 821.24,-375.91 851.24,-375.91 851.24,-356.91 821.24,-356.91"/>
<polygon fill="none" stroke="black" points="821.24,-356.91 821.24,-375.91 851.24,-375.91 851.24,-356.91 821.24,-356.91"/>
<text text-anchor="start" x="824.24" y="-363.31" font-family="sans-serif" font-size="12.00">ACL</text>
<polygon fill="white" stroke="transparent" points="778.46,-413.2 778.46,-432.2 794.46,-432.2 794.46,-413.2 778.46,-413.2"/>
<polyline fill="none" stroke="black" points="794.46,-413.2 794.46,-432.2 "/>
<text text-anchor="start" x="781.46" y="-419.6" font-family="sans-serif" font-size="12.00">U</text>
<polygon fill="white" stroke="transparent" points="794.46,-413.2 794.46,-432.2 827.46,-432.2 827.46,-413.2 794.46,-413.2"/>
<polygon fill="none" stroke="black" points="794.46,-413.2 794.46,-432.2 827.46,-432.2 827.46,-413.2 794.46,-413.2"/>
<text text-anchor="start" x="797.46" y="-419.6" font-family="sans-serif" font-size="12.00">OHS</text>
</g>
<!-- CumplimientoNormativoNA&#45;&gt;Pagos -->
<g id="edge9" class="edge">
<title>CumplimientoNormativoNA&#45;&gt;Pagos</title>
<path fill="none" stroke="black" stroke-width="2" d="M938.92,-440.06C966.15,-434.09 994.72,-428.1 1021.51,-422.99 1046.49,-418.22 1116.98,-423.41 1134.51,-404.99 1154.32,-384.18 1132.09,-300.04 1148.51,-276.46 1177.23,-235.22 1229.6,-211.29 1271.64,-198.01"/>
<text text-anchor="middle" x="1224.01" y="-322.12" font-family="sans-serif" font-size="12.00"> &#160;&#160;&#160;&#160;&#160;&#160;&#160;&#160;&#160;&#160;&#160;&#160;&#160;&#160;&#160;&#160;&#160;&#160;&#160;&#160;&#160;&#160;&#160;&#160;&#160;&#160;&#160;&#160;&#160;&#160;&#160;&#160;&#160;&#160;&#160;&#160;&#160;&#160;&#160;</text>
<polygon fill="white" stroke="transparent" points="1248.64,-188.01 1248.64,-207.01 1264.64,-207.01 1264.64,-188.01 1248.64,-188.01"/>
<polyline fill="none" stroke="black" points="1264.64,-188.01 1264.64,-207.01 "/>
<text text-anchor="start" x="1251.64" y="-194.41" font-family="sans-serif" font-size="12.00">D</text>
<polygon fill="white" stroke="transparent" points="1264.64,-188.01 1264.64,-207.01 1294.64,-207.01 1294.64,-188.01 1264.64,-188.01"/>
<polygon fill="none" stroke="black" points="1264.64,-188.01 1264.64,-207.01 1294.64,-207.01 1294.64,-188.01 1264.64,-188.01"/>
<text text-anchor="start" x="1267.64" y="-194.41" font-family="sans-serif" font-size="12.00">ACL</text>
<polygon fill="white" stroke="transparent" points="914.92,-430.06 914.92,-449.06 930.92,-449.06 930.92,-430.06 914.92,-430.06"/>
<polyline fill="none" stroke="black" points="930.92,-430.06 930.92,-449.06 "/>
<text text-anchor="start" x="917.92" y="-436.46" font-family="sans-serif" font-size="12.00">U</text>
<polygon fill="white" stroke="transparent" points="930.92,-430.06 930.92,-449.06 963.92,-449.06 963.92,-430.06 930.92,-430.06"/>
<polygon fill="none" stroke="black" points="930.92,-430.06 930.92,-449.06 963.92,-449.06 963.92,-430.06 930.92,-430.06"/>
<text text-anchor="start" x="933.92" y="-436.46" font-family="sans-serif" font-size="12.00">OHS</text>
</g>
<!-- GestionAsociacionesEstrategicas -->
<g id="node8" class="node">
<title>GestionAsociacionesEstrategicas</title>
<polygon fill="none" stroke="black" stroke-width="2" points="2261.21,-580.61 2272.67,-582.34 2283.68,-584.15 2294.21,-586.04 2304.2,-588.01 2313.63,-590.03 2322.44,-592.12 2330.61,-594.25 2338.09,-596.43 2344.86,-598.64 2350.89,-600.88 2356.16,-603.14 2360.64,-605.42 2364.33,-607.7 2367.21,-609.99 2369.26,-612.26 2370.5,-614.53 2370.91,-616.78 2370.51,-619.01 2369.29,-621.22 2367.28,-623.38 2364.48,-625.52 2360.92,-627.61 2356.62,-629.65 2351.61,-631.64 2345.9,-633.59 2339.54,-635.47 2332.56,-637.29 2324.99,-639.06 2316.86,-640.75 2308.23,-642.38 2299.13,-643.94 2289.6,-645.42 2279.69,-646.83 2269.43,-648.17 2258.86,-649.42 2248.04,-650.6 2237.01,-651.69 2225.8,-652.7 2214.45,-653.63 2203.02,-654.47 2191.52,-655.22 2180.01,-655.88 2168.51,-656.46 2157.06,-656.94 2145.69,-657.33 2134.43,-657.62 2123.31,-657.82 2112.35,-657.92 2101.57,-657.92 2091.01,-657.82 2080.66,-657.63 2070.56,-657.33 2060.72,-656.93 2051.15,-656.43 2041.86,-655.82 2032.87,-655.12 2024.17,-654.3 2015.79,-653.39 2007.71,-652.37 1999.96,-651.26 1992.54,-650.04 1985.44,-648.72 1978.67,-647.3 1972.24,-645.79 1966.14,-644.18 1960.39,-642.48 1954.98,-640.69 1949.91,-638.82 1945.2,-636.87 1940.85,-634.84 1936.85,-632.74 1933.22,-630.57 1929.97,-628.34 1927.09,-626.05 1924.6,-623.72 1922.51,-621.34 1920.83,-618.93 1919.56,-616.49 1918.71,-614.03 1918.31,-611.56 1918.35,-609.08 1918.85,-606.6 1919.82,-604.14 1921.27,-601.7 1923.21,-599.28 1925.66,-596.91 1928.62,-594.57 1932.1,-592.3 1936.1,-590.08 1940.64,-587.94 1945.71,-585.87 1951.33,-583.9 1957.48,-582.01 1964.18,-580.23 1971.41,-578.55 1979.17,-576.99 1987.45,-575.55 1996.24,-574.24 2005.53,-573.05 2015.29,-572 2025.52,-571.09 2036.17,-570.32 2047.24,-569.69 2058.69,-569.21 2070.49,-568.88 2082.61,-568.69 2095,-568.66 2107.64,-568.77 2120.47,-569.02 2133.46,-569.42 2146.55,-569.97 2159.71,-570.65 2172.88,-571.47 2186.02,-572.42 2199.07,-573.5 2211.98,-574.7 2224.7,-576.02 2237.18,-577.44 2249.37,-578.98 2261.21,-580.61"/>
<text text-anchor="middle" x="2127.51" y="-611.75" font-family="sans-serif" font-size="16.00">GestionAsociacionesEstrategicas</text>
</g>
<!-- GestionAsociacionesEstrategicas&#45;&gt;GestionContratos -->
<g id="edge12" class="edge">
<title>GestionAsociacionesEstrategicas&#45;&gt;GestionContratos</title>
<path fill="none" stroke="black" stroke-width="2" d="M1918.07,-610.34C1478.17,-600.47 494.38,-572.6 444.51,-519.85 414.94,-488.57 416.56,-455.73 444.51,-422.99 489.66,-370.12 686.03,-390.72 753.51,-373.99 770.09,-369.88 787.5,-364.68 804.19,-359.24"/>
<text text-anchor="middle" x="520.01" y="-468.32" font-family="sans-serif" font-size="12.00"> &#160;&#160;&#160;&#160;&#160;&#160;&#160;&#160;&#160;&#160;&#160;&#160;&#160;&#160;&#160;&#160;&#160;&#160;&#160;&#160;&#160;&#160;&#160;&#160;&#160;&#160;&#160;&#160;&#160;&#160;&#160;&#160;&#160;&#160;&#160;&#160;&#160;&#160;&#160;</text>
<polygon fill="white" stroke="transparent" points="797.19,-350.24 797.19,-367.24 811.19,-367.24 811.19,-350.24 797.19,-350.24"/>
<text text-anchor="start" x="799.19" y="-355.64" font-family="sans-serif" font-size="12.00">D</text>
<polygon fill="white" stroke="transparent" points="1894.07,-600.34 1894.07,-619.34 1910.07,-619.34 1910.07,-600.34 1894.07,-600.34"/>
<polyline fill="none" stroke="black" points="1910.07,-600.34 1910.07,-619.34 "/>
<text text-anchor="start" x="1897.07" y="-606.74" font-family="sans-serif" font-size="12.00">U</text>
<polygon fill="white" stroke="transparent" points="1910.07,-600.34 1910.07,-619.34 1943.07,-619.34 1943.07,-600.34 1910.07,-600.34"/>
<polygon fill="none" stroke="black" points="1910.07,-600.34 1910.07,-619.34 1943.07,-619.34 1943.07,-600.34 1910.07,-600.34"/>
<text text-anchor="start" x="1913.07" y="-606.74" font-family="sans-serif" font-size="12.00">OHS</text>
</g>
<!-- GestionAsociacionesEstrategicas&#45;&gt;ReportesAnalitica -->
<g id="edge13" class="edge">
<title>GestionAsociacionesEstrategicas&#45;&gt;ReportesAnalitica</title>
<path fill="none" stroke="black" stroke-width="2" d="M2323.93,-592.32C2389.18,-573.07 2445.51,-537.58 2445.51,-472.42 2445.51,-472.42 2445.51,-472.42 2445.51,-181.14 2445.51,-102.57 2360.45,-68.97 2279.88,-54.77"/>
<text text-anchor="middle" x="2521.01" y="-322.12" font-family="sans-serif" font-size="12.00"> &#160;&#160;&#160;&#160;&#160;&#160;&#160;&#160;&#160;&#160;&#160;&#160;&#160;&#160;&#160;&#160;&#160;&#160;&#160;&#160;&#160;&#160;&#160;&#160;&#160;&#160;&#160;&#160;&#160;&#160;&#160;&#160;&#160;&#160;&#160;&#160;&#160;&#160;&#160;</text>
<polygon fill="white" stroke="transparent" points="2272.88,-45.77 2272.88,-62.77 2286.88,-62.77 2286.88,-45.77 2272.88,-45.77"/>
<text text-anchor="start" x="2274.88" y="-51.17" font-family="sans-serif" font-size="12.00">D</text>
<polygon fill="white" stroke="transparent" points="2305.93,-582.32 2305.93,-601.32 2321.93,-601.32 2321.93,-582.32 2305.93,-582.32"/>
<polyline fill="none" stroke="black" points="2321.93,-582.32 2321.93,-601.32 "/>
<text text-anchor="start" x="2308.93" y="-588.72" font-family="sans-serif" font-size="12.00">U</text>
<polygon fill="white" stroke="transparent" points="2321.93,-582.32 2321.93,-601.32 2342.93,-601.32 2342.93,-582.32 2321.93,-582.32"/>
<polygon fill="none" stroke="black" points="2321.93,-582.32 2321.93,-601.32 2342.93,-601.32 2342.93,-582.32 2321.93,-582.32"/>
<text text-anchor="start" x="2324.93" y="-588.72" font-family="sans-serif" font-size="12.00">PL</text>
</g>
<!-- GestionCampanas -->
<g id="node9" class="node">
<title>GestionCampanas</title>
<polygon fill="none" stroke="black" stroke-width="2" points="2147.73,-463.33 2149.24,-460.51 2151.11,-457.73 2153.34,-455 2155.91,-452.34 2158.83,-449.74 2162.07,-447.23 2165.63,-444.82 2169.5,-442.5 2173.67,-440.3 2178.13,-438.21 2182.86,-436.26 2187.85,-434.43 2193.08,-432.75 2198.55,-431.2 2204.24,-429.81 2210.13,-428.57 2216.2,-427.48 2222.44,-426.55 2228.84,-425.77 2235.37,-425.15 2242.02,-424.69 2248.77,-424.38 2255.6,-424.23 2262.5,-424.22 2269.45,-424.36 2276.43,-424.65 2283.41,-425.07 2290.39,-425.63 2297.35,-426.31 2304.26,-427.12 2311.11,-428.04 2317.89,-429.07 2324.57,-430.2 2331.13,-431.42 2337.56,-432.74 2343.85,-434.14 2349.97,-435.61 2355.92,-437.16 2361.66,-438.76 2367.2,-440.42 2372.51,-442.13 2377.59,-443.89 2382.41,-445.68 2386.96,-447.5 2391.24,-449.35 2395.22,-451.23 2398.9,-453.12 2402.27,-455.03 2405.32,-456.95 2408.04,-458.88 2410.42,-460.81 2412.45,-462.74 2414.13,-464.68 2415.46,-466.61 2416.42,-468.54 2417.01,-470.46 2417.24,-472.37 2417.09,-474.28 2416.58,-476.18 2415.69,-478.06 2414.43,-479.94 2412.81,-481.8 2410.82,-483.64 2408.48,-485.47 2405.78,-487.28 2402.73,-489.07 2399.35,-490.84 2395.63,-492.59 2391.59,-494.31 2387.24,-496 2382.59,-497.66 2377.66,-499.28 2372.45,-500.87 2366.98,-502.41 2361.27,-503.91 2355.32,-505.35 2349.17,-506.74 2342.82,-508.06 2336.29,-509.32 2329.61,-510.51 2322.78,-511.62 2315.83,-512.64 2308.79,-513.58 2301.66,-514.42 2294.47,-515.17 2287.25,-515.8 2280,-516.32 2272.76,-516.73 2265.54,-517.01 2258.37,-517.17 2251.26,-517.2 2244.23,-517.09 2237.32,-516.84 2230.52,-516.45 2223.88,-515.92 2217.4,-515.24 2211.1,-514.41 2205,-513.44 2199.12,-512.31 2193.47,-511.05 2188.08,-509.64 2182.95,-508.08 2178.11,-506.39 2173.55,-504.57 2169.31,-502.62 2165.38,-500.54 2161.77,-498.35 2158.51,-496.05 2155.59,-493.64 2153.03,-491.15 2150.83,-488.57 2148.99,-485.91 2147.52,-483.2 2146.43,-480.43 2145.71,-477.62 2145.36,-474.77 2145.39,-471.91 2145.8,-469.04 2146.58,-466.18 2147.73,-463.33"/>
<text text-anchor="middle" x="2281.51" y="-467.62" font-family="sans-serif" font-size="16.00">GestionCampanas</text>
</g>
<!-- GestionAsociacionesEstrategicas&#45;&gt;GestionCampanas -->
<g id="edge11" class="edge">
<title>GestionAsociacionesEstrategicas&#45;&gt;GestionCampanas</title>
<path fill="none" stroke="black" stroke-width="2" d="M2174.13,-571.52C2192.9,-554.2 2214.54,-534.23 2233.45,-516.78"/>
<text text-anchor="middle" x="2284.01" y="-541.25" font-family="sans-serif" font-size="12.00"> &#160;&#160;&#160;&#160;&#160;&#160;&#160;&#160;&#160;&#160;&#160;&#160;&#160;&#160;&#160;&#160;&#160;&#160;&#160;&#160;&#160;&#160;&#160;&#160;&#160;&#160;&#160;&#160;&#160;&#160;&#160;&#160;&#160;&#160;&#160;&#160;&#160;&#160;&#160;</text>
<polygon fill="white" stroke="transparent" points="2226.45,-507.78 2226.45,-524.78 2240.45,-524.78 2240.45,-507.78 2226.45,-507.78"/>
<text text-anchor="start" x="2228.45" y="-513.18" font-family="sans-serif" font-size="12.00">D</text>
<polygon fill="white" stroke="transparent" points="2150.13,-561.52 2150.13,-580.52 2166.13,-580.52 2166.13,-561.52 2150.13,-561.52"/>
<polyline fill="none" stroke="black" points="2166.13,-561.52 2166.13,-580.52 "/>
<text text-anchor="start" x="2153.13" y="-567.92" font-family="sans-serif" font-size="12.00">U</text>
<polygon fill="white" stroke="transparent" points="2166.13,-561.52 2166.13,-580.52 2199.13,-580.52 2199.13,-561.52 2166.13,-561.52"/>
<polygon fill="none" stroke="black" points="2166.13,-561.52 2166.13,-580.52 2199.13,-580.52 2199.13,-561.52 2166.13,-561.52"/>
<text text-anchor="start" x="2169.13" y="-567.92" font-family="sans-serif" font-size="12.00">OHS</text>
</g>
<!-- TrackingEventos -->
<g id="node10" class="node">
<title>TrackingEventos</title>
<polygon fill="none" stroke="black" stroke-width="2" points="1901.06,-310.52 1903.69,-307.81 1906.62,-305.16 1909.85,-302.58 1913.37,-300.08 1917.16,-297.67 1921.21,-295.35 1925.51,-293.15 1930.04,-291.06 1934.8,-289.09 1939.76,-287.26 1944.91,-285.57 1950.24,-284.02 1955.73,-282.62 1961.36,-281.37 1967.13,-280.28 1973.01,-279.35 1978.99,-278.58 1985.06,-277.98 1991.19,-277.53 1997.37,-277.25 2003.6,-277.13 2009.84,-277.16 2016.09,-277.36 2022.34,-277.7 2028.56,-278.19 2034.75,-278.82 2040.88,-279.59 2046.95,-280.49 2052.94,-281.51 2058.83,-282.65 2064.62,-283.9 2070.29,-285.26 2075.83,-286.71 2081.22,-288.25 2086.46,-289.88 2091.52,-291.57 2096.41,-293.34 2101.1,-295.16 2105.58,-297.03 2109.86,-298.95 2113.9,-300.9 2117.71,-302.89 2121.27,-304.9 2124.58,-306.92 2127.62,-308.97 2130.39,-311.02 2132.88,-313.07 2135.08,-315.12 2136.98,-317.17 2138.59,-319.21 2139.88,-321.23 2140.86,-323.25 2141.51,-325.24 2141.85,-327.21 2141.86,-329.16 2141.54,-331.09 2140.89,-332.99 2139.91,-334.86 2138.6,-336.71 2136.96,-338.53 2134.99,-340.31 2132.69,-342.06 2130.07,-343.78 2127.14,-345.47 2123.89,-347.12 2120.33,-348.74 2116.48,-350.31 2112.34,-351.85 2107.92,-353.34 2103.23,-354.79 2098.28,-356.2 2093.1,-357.55 2087.68,-358.85 2082.04,-360.1 2076.2,-361.29 2070.18,-362.41 2064,-363.47 2057.66,-364.46 2051.19,-365.38 2044.62,-366.21 2037.95,-366.96 2031.2,-367.63 2024.41,-368.2 2017.59,-368.67 2010.75,-369.04 2003.93,-369.3 1997.14,-369.46 1990.41,-369.49 1983.75,-369.41 1977.19,-369.2 1970.75,-368.87 1964.44,-368.41 1958.29,-367.82 1952.32,-367.09 1946.54,-366.23 1940.98,-365.23 1935.65,-364.1 1930.57,-362.83 1925.74,-361.43 1921.2,-359.9 1916.95,-358.23 1913,-356.45 1909.37,-354.53 1906.06,-352.5 1903.09,-350.36 1900.46,-348.12 1898.18,-345.77 1896.25,-343.34 1894.68,-340.82 1893.47,-338.23 1892.63,-335.57 1892.15,-332.86 1892.03,-330.11 1892.27,-327.32 1892.87,-324.51 1893.83,-321.69 1895.13,-318.87 1896.77,-316.06 1898.76,-313.27 1901.06,-310.52"/>
<text text-anchor="middle" x="2018.51" y="-321.42" font-family="sans-serif" font-size="16.00">TrackingEventos</text>
</g>
<!-- GestionAsociacionesEstrategicas&#45;&gt;TrackingEventos -->
<g id="edge14" class="edge">
<title>GestionAsociacionesEstrategicas&#45;&gt;TrackingEventos</title>
<path fill="none" stroke="black" stroke-width="2" d="M2032.84,-570.42C2013.86,-556.98 1996.42,-540.23 1985.51,-519.85 1960.25,-472.65 1978.39,-410.52 1996.19,-369.52"/>
<text text-anchor="middle" x="2061.01" y="-468.32" font-family="sans-serif" font-size="12.00"> &#160;&#160;&#160;&#160;&#160;&#160;&#160;&#160;&#160;&#160;&#160;&#160;&#160;&#160;&#160;&#160;&#160;&#160;&#160;&#160;&#160;&#160;&#160;&#160;&#160;&#160;&#160;&#160;&#160;&#160;&#160;&#160;&#160;&#160;&#160;&#160;&#160;&#160;&#160;</text>
<polygon fill="white" stroke="transparent" points="1989.19,-360.52 1989.19,-377.52 2003.19,-377.52 2003.19,-360.52 1989.19,-360.52"/>
<text text-anchor="start" x="1991.19" y="-365.92" font-family="sans-serif" font-size="12.00">D</text>
<polygon fill="white" stroke="transparent" points="2014.84,-560.42 2014.84,-579.42 2030.84,-579.42 2030.84,-560.42 2014.84,-560.42"/>
<polyline fill="none" stroke="black" points="2030.84,-560.42 2030.84,-579.42 "/>
<text text-anchor="start" x="2017.84" y="-566.82" font-family="sans-serif" font-size="12.00">U</text>
<polygon fill="white" stroke="transparent" points="2030.84,-560.42 2030.84,-579.42 2051.84,-579.42 2051.84,-560.42 2030.84,-560.42"/>
<polygon fill="none" stroke="black" points="2030.84,-560.42 2030.84,-579.42 2051.84,-579.42 2051.84,-560.42 2030.84,-560.42"/>
<text text-anchor="start" x="2033.84" y="-566.82" font-family="sans-serif" font-size="12.00">PL</text>
</g>
<!-- GestionCampanas&#45;&gt;ReportesAnalitica -->
<g id="edge16" class="edge">
<title>GestionCampanas&#45;&gt;ReportesAnalitica</title>
<path fill="none" stroke="black" stroke-width="2" d="M2280.52,-424.8C2278.14,-345.44 2270.21,-185.78 2244.51,-136.83 2233.81,-116.45 2216.57,-98.59 2199.07,-84.17"/>
<text text-anchor="middle" x="2345.01" y="-248.86" font-family="sans-serif" font-size="12.00"> &#160;&#160;&#160;&#160;&#160;&#160;&#160;&#160;&#160;&#160;&#160;&#160;&#160;&#160;&#160;&#160;&#160;&#160;&#160;&#160;&#160;&#160;&#160;&#160;&#160;&#160;&#160;&#160;&#160;&#160;&#160;&#160;&#160;&#160;&#160;&#160;&#160;&#160;&#160;</text>
<polygon fill="white" stroke="transparent" points="2192.07,-75.17 2192.07,-92.17 2206.07,-92.17 2206.07,-75.17 2192.07,-75.17"/>
<text text-anchor="start" x="2194.07" y="-80.57" font-family="sans-serif" font-size="12.00">D</text>
<polygon fill="white" stroke="transparent" points="2262.52,-414.8 2262.52,-433.8 2278.52,-433.8 2278.52,-414.8 2262.52,-414.8"/>
<polyline fill="none" stroke="black" points="2278.52,-414.8 2278.52,-433.8 "/>
<text text-anchor="start" x="2265.52" y="-421.2" font-family="sans-serif" font-size="12.00">U</text>
<polygon fill="white" stroke="transparent" points="2278.52,-414.8 2278.52,-433.8 2299.52,-433.8 2299.52,-414.8 2278.52,-414.8"/>
<polygon fill="none" stroke="black" points="2278.52,-414.8 2278.52,-433.8 2299.52,-433.8 2299.52,-414.8 2278.52,-414.8"/>
<text text-anchor="start" x="2281.52" y="-421.2" font-family="sans-serif" font-size="12.00">PL</text>
</g>
<!-- GestionCampanas&#45;&gt;TrackingEventos -->
<g id="edge15" class="edge">
<title>GestionCampanas&#45;&gt;TrackingEventos</title>
<path fill="none" stroke="black" stroke-width="2" d="M2176.86,-438.74C2142.15,-427.23 2108.55,-414.68 2093.51,-404.99 2077.16,-394.46 2061.83,-379.65 2049.34,-365.71"/>
<text text-anchor="middle" x="2169.01" y="-395.39" font-family="sans-serif" font-size="12.00"> &#160;&#160;&#160;&#160;&#160;&#160;&#160;&#160;&#160;&#160;&#160;&#160;&#160;&#160;&#160;&#160;&#160;&#160;&#160;&#160;&#160;&#160;&#160;&#160;&#160;&#160;&#160;&#160;&#160;&#160;&#160;&#160;&#160;&#160;&#160;&#160;&#160;&#160;&#160;</text>
<polygon fill="white" stroke="transparent" points="2042.34,-356.71 2042.34,-373.71 2056.34,-373.71 2056.34,-356.71 2042.34,-356.71"/>
<text text-anchor="start" x="2044.34" y="-362.11" font-family="sans-serif" font-size="12.00">D</text>
<polygon fill="white" stroke="transparent" points="2158.86,-428.74 2158.86,-447.74 2174.86,-447.74 2174.86,-428.74 2158.86,-428.74"/>
<polyline fill="none" stroke="black" points="2174.86,-428.74 2174.86,-447.74 "/>
<text text-anchor="start" x="2161.86" y="-435.14" font-family="sans-serif" font-size="12.00">U</text>
<polygon fill="white" stroke="transparent" points="2174.86,-428.74 2174.86,-447.74 2195.86,-447.74 2195.86,-428.74 2174.86,-428.74"/>
<polygon fill="none" stroke="black" points="2174.86,-428.74 2174.86,-447.74 2195.86,-447.74 2195.86,-428.74 2174.86,-428.74"/>
<text text-anchor="start" x="2177.86" y="-435.14" font-family="sans-serif" font-size="12.00">PL</text>
</g>
<!-- TrackingEventos&#45;&gt;Pagos -->
<g id="edge18" class="edge">
<title>TrackingEventos&#45;&gt;Pagos</title>
<path fill="none" stroke="black" stroke-width="2" d="M1912.72,-300.36C1841.07,-284.37 1744.21,-263.1 1658.51,-245.46 1566.49,-226.52 1459.36,-206.19 1394.54,-194.08"/>
<text text-anchor="middle" x="1793.01" y="-248.86" font-family="sans-serif" font-size="12.00"> &#160;&#160;&#160;&#160;&#160;&#160;&#160;&#160;&#160;&#160;&#160;&#160;&#160;&#160;&#160;&#160;&#160;&#160;&#160;&#160;&#160;&#160;&#160;&#160;&#160;&#160;&#160;&#160;&#160;&#160;&#160;&#160;&#160;&#160;&#160;&#160;&#160;&#160;&#160;</text>
<polygon fill="white" stroke="transparent" points="1387.54,-185.08 1387.54,-202.08 1401.54,-202.08 1401.54,-185.08 1387.54,-185.08"/>
<text text-anchor="start" x="1389.54" y="-190.48" font-family="sans-serif" font-size="12.00">D</text>
<polygon fill="white" stroke="transparent" points="1894.72,-290.36 1894.72,-309.36 1910.72,-309.36 1910.72,-290.36 1894.72,-290.36"/>
<polyline fill="none" stroke="black" points="1910.72,-290.36 1910.72,-309.36 "/>
<text text-anchor="start" x="1897.72" y="-296.76" font-family="sans-serif" font-size="12.00">U</text>
<polygon fill="white" stroke="transparent" points="1910.72,-290.36 1910.72,-309.36 1931.72,-309.36 1931.72,-290.36 1910.72,-290.36"/>
<polygon fill="none" stroke="black" points="1910.72,-290.36 1910.72,-309.36 1931.72,-309.36 1931.72,-290.36 1910.72,-290.36"/>
<text text-anchor="start" x="1913.72" y="-296.76" font-family="sans-serif" font-size="12.00">PL</text>
</g>
<!-- TrackingEventos&#45;&gt;ReportesAnalitica -->
<g id="edge17" class="edge">
<title>TrackingEventos&#45;&gt;ReportesAnalitica</title>
<path fill="none" stroke="black" stroke-width="2" d="M2035.61,-278.77C2050.24,-240.58 2072.25,-184.71 2093.51,-136.83 2100.72,-120.59 2109.17,-103.02 2116.78,-87.62"/>
<text text-anchor="middle" x="2169.01" y="-179.04" font-family="sans-serif" font-size="12.00"> &#160;&#160;&#160;&#160;&#160;&#160;&#160;&#160;&#160;&#160;&#160;&#160;&#160;&#160;&#160;&#160;&#160;&#160;&#160;&#160;&#160;&#160;&#160;&#160;&#160;&#160;&#160;&#160;&#160;&#160;&#160;&#160;&#160;&#160;&#160;&#160;&#160;&#160;&#160;</text>
<polygon fill="white" stroke="transparent" points="2109.78,-78.62 2109.78,-95.62 2123.78,-95.62 2123.78,-78.62 2109.78,-78.62"/>
<text text-anchor="start" x="2111.78" y="-84.02" font-family="sans-serif" font-size="12.00">D</text>
<polygon fill="white" stroke="transparent" points="2017.61,-268.77 2017.61,-287.77 2033.61,-287.77 2033.61,-268.77 2017.61,-268.77"/>
<polyline fill="none" stroke="black" points="2033.61,-268.77 2033.61,-287.77 "/>
<text text-anchor="start" x="2020.61" y="-275.17" font-family="sans-serif" font-size="12.00">U</text>
<polygon fill="white" stroke="transparent" points="2033.61,-268.77 2033.61,-287.77 2054.61,-287.77 2054.61,-268.77 2033.61,-268.77"/>
<polygon fill="none" stroke="black" points="2033.61,-268.77 2033.61,-287.77 2054.61,-287.77 2054.61,-268.77 2033.61,-268.77"/>
<text text-anchor="start" x="2036.61" y="-275.17" font-family="sans-serif" font-size="12.00">PL</text>
</g>
</g>
</svg>
